<svg xmlns="http://www.w3.org/2000/svg" xmlns:xlink="http://www.w3.org/1999/xlink" width="1080" zoomAndPan="magnify" viewBox="0 0 810 809.999993" height="1080" preserveAspectRatio="xMidYMid meet" version="1.0"><defs><clipPath id="4e291ca2d8"><path d="M 180 0 L 810 0 L 810 90 L 180 90 Z M 180 0 " clip-rule="nonzero"/></clipPath><clipPath id="01973993bd"><path d="M 225 90 L 765 90 C 766.472656 90 767.945312 89.929688 769.410156 89.785156 C 770.878906 89.640625 772.332031 89.421875 773.777344 89.136719 C 775.222656 88.847656 776.652344 88.488281 778.0625 88.0625 C 779.472656 87.632812 780.859375 87.136719 782.21875 86.574219 C 783.582031 86.011719 784.914062 85.382812 786.210938 84.6875 C 787.511719 83.992188 788.773438 83.234375 790 82.417969 C 791.226562 81.597656 792.410156 80.71875 793.546875 79.785156 C 794.6875 78.851562 795.777344 77.863281 796.820312 76.820312 C 797.863281 75.777344 798.851562 74.6875 799.785156 73.546875 C 800.71875 72.410156 801.597656 71.226562 802.414062 70 C 803.234375 68.773438 803.992188 67.511719 804.6875 66.210938 C 805.382812 64.914062 806.011719 63.582031 806.574219 62.222656 C 807.136719 60.859375 807.632812 59.472656 808.0625 58.0625 C 808.488281 56.652344 808.847656 55.222656 809.136719 53.777344 C 809.421875 52.332031 809.640625 50.878906 809.785156 49.410156 C 809.925781 47.945312 810 46.472656 810 45 C 810 43.527344 809.925781 42.054688 809.785156 40.589844 C 809.640625 39.121094 809.421875 37.667969 809.136719 36.222656 C 808.847656 34.777344 808.488281 33.347656 808.0625 31.9375 C 807.632812 30.527344 807.136719 29.140625 806.574219 27.777344 C 806.011719 26.417969 805.382812 25.085938 804.6875 23.789062 C 803.992188 22.488281 803.234375 21.226562 802.414062 20 C 801.597656 18.773438 800.71875 17.589844 799.785156 16.453125 C 798.851562 15.3125 797.863281 14.222656 796.820312 13.179688 C 795.777344 12.136719 794.6875 11.148438 793.546875 10.214844 C 792.410156 9.28125 791.226562 8.402344 790 7.582031 C 788.773438 6.765625 787.511719 6.007812 786.210938 5.3125 C 784.914062 4.617188 783.582031 3.988281 782.21875 3.425781 C 780.859375 2.863281 779.472656 2.367188 778.0625 1.9375 C 776.652344 1.511719 775.222656 1.152344 773.777344 0.863281 C 772.332031 0.578125 770.878906 0.359375 769.410156 0.214844 C 767.945312 0.0703125 766.472656 0 765 0 L 225 0 C 223.527344 0 222.054688 0.0703125 220.589844 0.214844 C 219.121094 0.359375 217.667969 0.578125 216.222656 0.863281 C 214.777344 1.152344 213.347656 1.511719 211.9375 1.9375 C 210.527344 2.367188 209.140625 2.863281 207.777344 3.425781 C 206.417969 3.988281 205.085938 4.617188 203.789062 5.3125 C 202.488281 6.007812 201.226562 6.765625 200 7.582031 C 198.773438 8.402344 197.589844 9.28125 196.453125 10.214844 C 195.3125 11.148438 194.222656 12.136719 193.179688 13.179688 C 192.136719 14.222656 191.148438 15.3125 190.214844 16.453125 C 189.28125 17.589844 188.402344 18.773438 187.582031 20 C 186.765625 21.226562 186.007812 22.488281 185.3125 23.789062 C 184.617188 25.085938 183.988281 26.417969 183.425781 27.777344 C 182.863281 29.140625 182.367188 30.527344 181.9375 31.9375 C 181.511719 33.347656 181.152344 34.777344 180.863281 36.222656 C 180.578125 37.667969 180.359375 39.121094 180.214844 40.589844 C 180.070312 42.054688 180 43.527344 180 45 C 180 46.472656 180.070312 47.945312 180.214844 49.410156 C 180.359375 50.878906 180.578125 52.332031 180.863281 53.777344 C 181.152344 55.222656 181.511719 56.652344 181.9375 58.0625 C 182.367188 59.472656 182.863281 60.859375 183.425781 62.222656 C 183.988281 63.582031 184.617188 64.914062 185.3125 66.210938 C 186.007812 67.511719 186.765625 68.773438 187.582031 70 C 188.402344 71.226562 189.28125 72.410156 190.214844 73.546875 C 191.148438 74.6875 192.136719 75.777344 193.179688 76.820312 C 194.222656 77.863281 195.3125 78.851562 196.453125 79.785156 C 197.589844 80.71875 198.773438 81.597656 200 82.417969 C 201.226562 83.234375 202.488281 83.992188 203.789062 84.6875 C 205.085938 85.382812 206.417969 86.011719 207.777344 86.574219 C 209.140625 87.136719 210.527344 87.632812 211.9375 88.0625 C 213.347656 88.488281 214.777344 88.847656 216.222656 89.136719 C 217.667969 89.421875 219.121094 89.640625 220.589844 89.785156 C 222.054688 89.929688 223.527344 90 225 90 Z M 225 90 " clip-rule="nonzero"/></clipPath><linearGradient x1="8.498678" gradientTransform="matrix(45, 0, 0, 45, -44.999996, -44.99998)" y1="6.035593" x2="15.501459" gradientUnits="userSpaceOnUse" y2="-2.035474" id="5055098843"><stop stop-opacity="1" stop-color="rgb(95.878601%, 59.693909%, 21.72699%)" offset="0"/><stop stop-opacity="1" stop-color="rgb(95.854187%, 59.564209%, 21.847534%)" offset="0.015625"/><stop stop-opacity="1" stop-color="rgb(95.808411%, 59.30481%, 22.088623%)" offset="0.03125"/><stop stop-opacity="1" stop-color="rgb(95.761108%, 59.046936%, 22.329712%)" offset="0.046875"/><stop stop-opacity="1" stop-color="rgb(95.713806%, 58.787537%, 22.570801%)" offset="0.0625"/><stop stop-opacity="1" stop-color="rgb(95.666504%, 58.528137%, 22.81189%)" offset="0.078125"/><stop stop-opacity="1" stop-color="rgb(95.619202%, 58.270264%, 23.051453%)" offset="0.09375"/><stop stop-opacity="1" stop-color="rgb(95.573425%, 58.010864%, 23.292542%)" offset="0.109375"/><stop stop-opacity="1" stop-color="rgb(95.526123%, 57.751465%, 23.53363%)" offset="0.125"/><stop stop-opacity="1" stop-color="rgb(95.478821%, 57.492065%, 23.774719%)" offset="0.140625"/><stop stop-opacity="1" stop-color="rgb(95.431519%, 57.234192%, 24.015808%)" offset="0.141373"/><stop stop-opacity="1" stop-color="rgb(95.40863%, 57.104492%, 24.136353%)" offset="0.15625"/><stop stop-opacity="1" stop-color="rgb(95.384216%, 56.974792%, 24.256897%)" offset="0.171875"/><stop stop-opacity="1" stop-color="rgb(95.33844%, 56.715393%, 24.497986%)" offset="0.1875"/><stop stop-opacity="1" stop-color="rgb(95.289612%, 56.43158%, 24.650574%)" offset="0.203125"/><stop stop-opacity="1" stop-color="rgb(95.239258%, 56.109619%, 24.668884%)" offset="0.21875"/><stop stop-opacity="1" stop-color="rgb(95.188904%, 55.773926%, 24.642944%)" offset="0.234375"/><stop stop-opacity="1" stop-color="rgb(95.137024%, 55.439758%, 24.617004%)" offset="0.25"/><stop stop-opacity="1" stop-color="rgb(95.085144%, 55.104065%, 24.59259%)" offset="0.265625"/><stop stop-opacity="1" stop-color="rgb(95.03479%, 54.769897%, 24.56665%)" offset="0.28125"/><stop stop-opacity="1" stop-color="rgb(94.98291%, 54.434204%, 24.54071%)" offset="0.296875"/><stop stop-opacity="1" stop-color="rgb(94.932556%, 54.100037%, 24.514771%)" offset="0.3125"/><stop stop-opacity="1" stop-color="rgb(94.880676%, 53.764343%, 24.490356%)" offset="0.328125"/><stop stop-opacity="1" stop-color="rgb(94.830322%, 53.430176%, 24.464417%)" offset="0.34375"/><stop stop-opacity="1" stop-color="rgb(94.778442%, 53.094482%, 24.438477%)" offset="0.359375"/><stop stop-opacity="1" stop-color="rgb(94.726562%, 52.758789%, 24.412537%)" offset="0.375"/><stop stop-opacity="1" stop-color="rgb(94.676208%, 52.424622%, 24.386597%)" offset="0.390625"/><stop stop-opacity="1" stop-color="rgb(94.624329%, 52.088928%, 24.362183%)" offset="0.40625"/><stop stop-opacity="1" stop-color="rgb(94.573975%, 51.754761%, 24.336243%)" offset="0.421875"/><stop stop-opacity="1" stop-color="rgb(94.522095%, 51.419067%, 24.310303%)" offset="0.4375"/><stop stop-opacity="1" stop-color="rgb(94.471741%, 51.0849%, 24.284363%)" offset="0.453125"/><stop stop-opacity="1" stop-color="rgb(94.419861%, 50.749207%, 24.259949%)" offset="0.46875"/><stop stop-opacity="1" stop-color="rgb(94.369507%, 50.415039%, 24.234009%)" offset="0.484375"/><stop stop-opacity="1" stop-color="rgb(94.317627%, 50.079346%, 24.208069%)" offset="0.5"/><stop stop-opacity="1" stop-color="rgb(94.265747%, 49.743652%, 24.182129%)" offset="0.515625"/><stop stop-opacity="1" stop-color="rgb(94.215393%, 49.409485%, 24.156189%)" offset="0.53125"/><stop stop-opacity="1" stop-color="rgb(94.163513%, 49.073792%, 24.131775%)" offset="0.546875"/><stop stop-opacity="1" stop-color="rgb(94.113159%, 48.739624%, 24.105835%)" offset="0.5625"/><stop stop-opacity="1" stop-color="rgb(94.061279%, 48.403931%, 24.079895%)" offset="0.578125"/><stop stop-opacity="1" stop-color="rgb(94.010925%, 48.069763%, 24.053955%)" offset="0.59375"/><stop stop-opacity="1" stop-color="rgb(93.959045%, 47.73407%, 24.028015%)" offset="0.609375"/><stop stop-opacity="1" stop-color="rgb(93.907166%, 47.399902%, 24.003601%)" offset="0.625"/><stop stop-opacity="1" stop-color="rgb(93.856812%, 47.064209%, 23.977661%)" offset="0.640625"/><stop stop-opacity="1" stop-color="rgb(93.804932%, 46.730042%, 23.951721%)" offset="0.65625"/><stop stop-opacity="1" stop-color="rgb(93.754578%, 46.394348%, 23.925781%)" offset="0.671875"/><stop stop-opacity="1" stop-color="rgb(93.702698%, 46.058655%, 23.901367%)" offset="0.6875"/><stop stop-opacity="1" stop-color="rgb(93.652344%, 45.724487%, 23.875427%)" offset="0.703125"/><stop stop-opacity="1" stop-color="rgb(93.600464%, 45.388794%, 23.849487%)" offset="0.71875"/><stop stop-opacity="1" stop-color="rgb(93.55011%, 45.054626%, 23.823547%)" offset="0.734375"/><stop stop-opacity="1" stop-color="rgb(93.49823%, 44.718933%, 23.797607%)" offset="0.75"/><stop stop-opacity="1" stop-color="rgb(93.44635%, 44.384766%, 23.773193%)" offset="0.765625"/><stop stop-opacity="1" stop-color="rgb(93.395996%, 44.049072%, 23.747253%)" offset="0.78125"/><stop stop-opacity="1" stop-color="rgb(93.344116%, 43.714905%, 23.721313%)" offset="0.796875"/><stop stop-opacity="1" stop-color="rgb(93.293762%, 43.379211%, 23.695374%)" offset="0.8125"/><stop stop-opacity="1" stop-color="rgb(93.241882%, 43.043518%, 23.670959%)" offset="0.828125"/><stop stop-opacity="1" stop-color="rgb(93.191528%, 42.709351%, 23.64502%)" offset="0.84375"/><stop stop-opacity="1" stop-color="rgb(93.139648%, 42.373657%, 23.61908%)" offset="0.858627"/><stop stop-opacity="1" stop-color="rgb(93.113708%, 42.207336%, 23.606873%)" offset="0.859375"/><stop stop-opacity="1" stop-color="rgb(93.087769%, 42.03949%, 23.59314%)" offset="0.875"/><stop stop-opacity="1" stop-color="rgb(93.037415%, 41.703796%, 23.5672%)" offset="0.890625"/><stop stop-opacity="1" stop-color="rgb(92.985535%, 41.369629%, 23.542786%)" offset="0.90625"/><stop stop-opacity="1" stop-color="rgb(92.935181%, 41.033936%, 23.516846%)" offset="0.921875"/><stop stop-opacity="1" stop-color="rgb(92.893982%, 40.730286%, 23.497009%)" offset="0.929687"/><stop stop-opacity="1" stop-color="rgb(92.86499%, 40.422058%, 23.480225%)" offset="0.9375"/><stop stop-opacity="1" stop-color="rgb(92.832947%, 40.077209%, 23.46344%)" offset="0.945313"/><stop stop-opacity="1" stop-color="rgb(92.802429%, 39.733887%, 23.446655%)" offset="0.953125"/><stop stop-opacity="1" stop-color="rgb(92.770386%, 39.389038%, 23.429871%)" offset="0.960938"/><stop stop-opacity="1" stop-color="rgb(92.739868%, 39.045715%, 23.413086%)" offset="0.96875"/><stop stop-opacity="1" stop-color="rgb(92.707825%, 38.700867%, 23.396301%)" offset="0.976563"/><stop stop-opacity="1" stop-color="rgb(92.677307%, 38.356018%, 23.379517%)" offset="0.984375"/><stop stop-opacity="1" stop-color="rgb(92.645264%, 38.012695%, 23.362732%)" offset="0.992188"/><stop stop-opacity="1" stop-color="rgb(92.614746%, 37.667847%, 23.347473%)" offset="1"/></linearGradient><clipPath id="8e3ffac328"><path d="M 180 180 L 810 180 L 810 270 L 180 270 Z M 180 180 " clip-rule="nonzero"/></clipPath><clipPath id="588212dbc7"><path d="M 765 180 L 225 180 C 223.527344 180 222.054688 180.070312 220.589844 180.214844 C 219.121094 180.359375 217.667969 180.578125 216.222656 180.863281 C 214.777344 181.152344 213.347656 181.511719 211.9375 181.9375 C 210.527344 182.367188 209.140625 182.863281 207.777344 183.425781 C 206.417969 183.988281 205.085938 184.617188 203.789062 185.3125 C 202.488281 186.007812 201.226562 186.765625 200 187.582031 C 198.773438 188.402344 197.589844 189.28125 196.453125 190.214844 C 195.3125 191.148438 194.222656 192.136719 193.179688 193.179688 C 192.136719 194.222656 191.148438 195.3125 190.214844 196.453125 C 189.28125 197.589844 188.402344 198.773438 187.582031 200 C 186.765625 201.226562 186.007812 202.488281 185.3125 203.789062 C 184.617188 205.085938 183.988281 206.417969 183.425781 207.777344 C 182.863281 209.140625 182.367188 210.527344 181.9375 211.9375 C 181.511719 213.347656 181.152344 214.777344 180.863281 216.222656 C 180.578125 217.667969 180.359375 219.121094 180.214844 220.589844 C 180.070312 222.054688 180 223.527344 180 225 C 180 226.472656 180.070312 227.945312 180.214844 229.410156 C 180.359375 230.878906 180.578125 232.332031 180.863281 233.777344 C 181.152344 235.222656 181.511719 236.652344 181.9375 238.0625 C 182.367188 239.472656 182.863281 240.859375 183.425781 242.222656 C 183.988281 243.582031 184.617188 244.914062 185.3125 246.210938 C 186.007812 247.511719 186.765625 248.773438 187.582031 250 C 188.402344 251.226562 189.28125 252.410156 190.214844 253.546875 C 191.148438 254.6875 192.136719 255.777344 193.179688 256.820312 C 194.222656 257.863281 195.3125 258.851562 196.453125 259.785156 C 197.589844 260.71875 198.773438 261.597656 200 262.417969 C 201.226562 263.234375 202.488281 263.992188 203.789062 264.6875 C 205.085938 265.382812 206.417969 266.011719 207.777344 266.574219 C 209.140625 267.136719 210.527344 267.632812 211.9375 268.0625 C 213.347656 268.488281 214.777344 268.847656 216.222656 269.136719 C 217.667969 269.421875 219.121094 269.640625 220.589844 269.785156 C 222.054688 269.929688 223.527344 270 225 270 L 765 270 C 766.472656 270 767.945312 269.929688 769.410156 269.785156 C 770.878906 269.640625 772.332031 269.421875 773.777344 269.136719 C 775.222656 268.847656 776.652344 268.488281 778.0625 268.0625 C 779.472656 267.632812 780.859375 267.136719 782.21875 266.574219 C 783.582031 266.011719 784.914062 265.382812 786.210938 264.6875 C 787.511719 263.992188 788.773438 263.234375 790 262.417969 C 791.226562 261.597656 792.410156 260.71875 793.546875 259.785156 C 794.6875 258.851562 795.777344 257.863281 796.820312 256.820312 C 797.863281 255.777344 798.851562 254.6875 799.785156 253.546875 C 800.71875 252.410156 801.597656 251.226562 802.414062 250 C 803.234375 248.773438 803.992188 247.511719 804.6875 246.210938 C 805.382812 244.914062 806.011719 243.582031 806.574219 242.222656 C 807.136719 240.859375 807.632812 239.472656 808.0625 238.0625 C 808.488281 236.652344 808.847656 235.222656 809.136719 233.777344 C 809.421875 232.332031 809.640625 230.878906 809.785156 229.410156 C 809.925781 227.945312 810 226.472656 810 225 C 810 223.527344 809.925781 222.054688 809.785156 220.589844 C 809.640625 219.121094 809.421875 217.667969 809.136719 216.222656 C 808.847656 214.777344 808.488281 213.347656 808.0625 211.9375 C 807.632812 210.527344 807.136719 209.140625 806.574219 207.777344 C 806.011719 206.417969 805.382812 205.085938 804.6875 203.789062 C 803.992188 202.488281 803.234375 201.226562 802.414062 200 C 801.597656 198.773438 800.71875 197.589844 799.785156 196.453125 C 798.851562 195.3125 797.863281 194.222656 796.820312 193.179688 C 795.777344 192.136719 794.6875 191.148438 793.546875 190.214844 C 792.410156 189.28125 791.226562 188.402344 790 187.582031 C 788.773438 186.765625 787.511719 186.007812 786.210938 185.3125 C 784.914062 184.617188 783.582031 183.988281 782.21875 183.425781 C 780.859375 182.863281 779.472656 182.367188 778.0625 181.9375 C 776.652344 181.511719 775.222656 181.152344 773.777344 180.863281 C 772.332031 180.578125 770.878906 180.359375 769.410156 180.214844 C 767.945312 180.070312 766.472656 180 765 180 Z M 765 180 " clip-rule="nonzero"/></clipPath><linearGradient x1="8.498704" gradientTransform="matrix(45, 0, 0, 45, -44.999996, -44.99998)" y1="10.035615" x2="15.501484" gradientUnits="userSpaceOnUse" y2="1.964548" id="9747ba7fd6"><stop stop-opacity="1" stop-color="rgb(96.728516%, 64.379883%, 17.36908%)" offset="0"/><stop stop-opacity="1" stop-color="rgb(96.704102%, 64.250183%, 17.489624%)" offset="0.015625"/><stop stop-opacity="1" stop-color="rgb(96.658325%, 63.990784%, 17.729187%)" offset="0.03125"/><stop stop-opacity="1" stop-color="rgb(96.611023%, 63.731384%, 17.970276%)" offset="0.046875"/><stop stop-opacity="1" stop-color="rgb(96.563721%, 63.473511%, 18.211365%)" offset="0.0625"/><stop stop-opacity="1" stop-color="rgb(96.516418%, 63.214111%, 18.452454%)" offset="0.078125"/><stop stop-opacity="1" stop-color="rgb(96.469116%, 62.954712%, 18.693542%)" offset="0.09375"/><stop stop-opacity="1" stop-color="rgb(96.42334%, 62.696838%, 18.934631%)" offset="0.109375"/><stop stop-opacity="1" stop-color="rgb(96.376038%, 62.437439%, 19.17572%)" offset="0.125"/><stop stop-opacity="1" stop-color="rgb(96.328735%, 62.17804%, 19.415283%)" offset="0.140625"/><stop stop-opacity="1" stop-color="rgb(96.281433%, 61.920166%, 19.656372%)" offset="0.141373"/><stop stop-opacity="1" stop-color="rgb(96.258545%, 61.790466%, 19.776917%)" offset="0.15625"/><stop stop-opacity="1" stop-color="rgb(96.235657%, 61.660767%, 19.897461%)" offset="0.171875"/><stop stop-opacity="1" stop-color="rgb(96.188354%, 61.401367%, 20.13855%)" offset="0.1875"/><stop stop-opacity="1" stop-color="rgb(96.141052%, 61.141968%, 20.379639%)" offset="0.203125"/><stop stop-opacity="1" stop-color="rgb(96.09375%, 60.884094%, 20.620728%)" offset="0.21875"/><stop stop-opacity="1" stop-color="rgb(96.046448%, 60.624695%, 20.861816%)" offset="0.234375"/><stop stop-opacity="1" stop-color="rgb(96.000671%, 60.365295%, 21.101379%)" offset="0.25"/><stop stop-opacity="1" stop-color="rgb(95.953369%, 60.107422%, 21.342468%)" offset="0.265625"/><stop stop-opacity="1" stop-color="rgb(95.906067%, 59.848022%, 21.583557%)" offset="0.28125"/><stop stop-opacity="1" stop-color="rgb(95.858765%, 59.588623%, 21.824646%)" offset="0.296875"/><stop stop-opacity="1" stop-color="rgb(95.811462%, 59.33075%, 22.065735%)" offset="0.3125"/><stop stop-opacity="1" stop-color="rgb(95.765686%, 59.07135%, 22.306824%)" offset="0.328125"/><stop stop-opacity="1" stop-color="rgb(95.718384%, 58.811951%, 22.547913%)" offset="0.34375"/><stop stop-opacity="1" stop-color="rgb(95.671082%, 58.552551%, 22.789001%)" offset="0.359375"/><stop stop-opacity="1" stop-color="rgb(95.623779%, 58.294678%, 23.028564%)" offset="0.375"/><stop stop-opacity="1" stop-color="rgb(95.578003%, 58.035278%, 23.269653%)" offset="0.390625"/><stop stop-opacity="1" stop-color="rgb(95.530701%, 57.775879%, 23.510742%)" offset="0.40625"/><stop stop-opacity="1" stop-color="rgb(95.483398%, 57.518005%, 23.751831%)" offset="0.421875"/><stop stop-opacity="1" stop-color="rgb(95.436096%, 57.258606%, 23.99292%)" offset="0.4375"/><stop stop-opacity="1" stop-color="rgb(95.388794%, 56.999207%, 24.234009%)" offset="0.453125"/><stop stop-opacity="1" stop-color="rgb(95.343018%, 56.741333%, 24.475098%)" offset="0.46875"/><stop stop-opacity="1" stop-color="rgb(95.294189%, 56.460571%, 24.639893%)" offset="0.484375"/><stop stop-opacity="1" stop-color="rgb(95.243835%, 56.141663%, 24.671936%)" offset="0.5"/><stop stop-opacity="1" stop-color="rgb(95.193481%, 55.805969%, 24.645996%)" offset="0.515625"/><stop stop-opacity="1" stop-color="rgb(95.141602%, 55.471802%, 24.620056%)" offset="0.53125"/><stop stop-opacity="1" stop-color="rgb(95.091248%, 55.136108%, 24.594116%)" offset="0.546875"/><stop stop-opacity="1" stop-color="rgb(95.039368%, 54.801941%, 24.568176%)" offset="0.5625"/><stop stop-opacity="1" stop-color="rgb(94.987488%, 54.466248%, 24.543762%)" offset="0.578125"/><stop stop-opacity="1" stop-color="rgb(94.937134%, 54.13208%, 24.517822%)" offset="0.59375"/><stop stop-opacity="1" stop-color="rgb(94.885254%, 53.796387%, 24.491882%)" offset="0.609375"/><stop stop-opacity="1" stop-color="rgb(94.8349%, 53.460693%, 24.465942%)" offset="0.625"/><stop stop-opacity="1" stop-color="rgb(94.78302%, 53.126526%, 24.441528%)" offset="0.640625"/><stop stop-opacity="1" stop-color="rgb(94.732666%, 52.790833%, 24.415588%)" offset="0.65625"/><stop stop-opacity="1" stop-color="rgb(94.680786%, 52.456665%, 24.389648%)" offset="0.671875"/><stop stop-opacity="1" stop-color="rgb(94.630432%, 52.120972%, 24.363708%)" offset="0.6875"/><stop stop-opacity="1" stop-color="rgb(94.578552%, 51.786804%, 24.337769%)" offset="0.703125"/><stop stop-opacity="1" stop-color="rgb(94.526672%, 51.451111%, 24.313354%)" offset="0.71875"/><stop stop-opacity="1" stop-color="rgb(94.476318%, 51.116943%, 24.287415%)" offset="0.734375"/><stop stop-opacity="1" stop-color="rgb(94.424438%, 50.78125%, 24.261475%)" offset="0.75"/><stop stop-opacity="1" stop-color="rgb(94.374084%, 50.447083%, 24.235535%)" offset="0.765625"/><stop stop-opacity="1" stop-color="rgb(94.322205%, 50.111389%, 24.211121%)" offset="0.78125"/><stop stop-opacity="1" stop-color="rgb(94.271851%, 49.775696%, 24.185181%)" offset="0.796875"/><stop stop-opacity="1" stop-color="rgb(94.219971%, 49.441528%, 24.159241%)" offset="0.8125"/><stop stop-opacity="1" stop-color="rgb(94.168091%, 49.105835%, 24.133301%)" offset="0.828125"/><stop stop-opacity="1" stop-color="rgb(94.117737%, 48.771667%, 24.107361%)" offset="0.84375"/><stop stop-opacity="1" stop-color="rgb(94.065857%, 48.435974%, 24.082947%)" offset="0.858627"/><stop stop-opacity="1" stop-color="rgb(94.041443%, 48.269653%, 24.07074%)" offset="0.859375"/><stop stop-opacity="1" stop-color="rgb(94.015503%, 48.101807%, 24.057007%)" offset="0.875"/><stop stop-opacity="1" stop-color="rgb(93.963623%, 47.766113%, 24.031067%)" offset="0.890625"/><stop stop-opacity="1" stop-color="rgb(93.913269%, 47.431946%, 24.005127%)" offset="0.90625"/><stop stop-opacity="1" stop-color="rgb(93.861389%, 47.096252%, 23.980713%)" offset="0.921875"/><stop stop-opacity="1" stop-color="rgb(93.811035%, 46.760559%, 23.954773%)" offset="0.9375"/><stop stop-opacity="1" stop-color="rgb(93.759155%, 46.426392%, 23.928833%)" offset="0.953125"/><stop stop-opacity="1" stop-color="rgb(93.707275%, 46.090698%, 23.902893%)" offset="0.96875"/><stop stop-opacity="1" stop-color="rgb(93.656921%, 45.756531%, 23.876953%)" offset="0.984375"/><stop stop-opacity="1" stop-color="rgb(93.605042%, 45.420837%, 23.852539%)" offset="1"/></linearGradient><clipPath id="eece1ee36e"><path d="M 180 360 L 810 360 L 810 450 L 180 450 Z M 180 360 " clip-rule="nonzero"/></clipPath><clipPath id="a2b6333709"><path d="M 765 360 L 225 360 C 223.527344 360 222.054688 360.070312 220.589844 360.214844 C 219.121094 360.359375 217.667969 360.578125 216.222656 360.863281 C 214.777344 361.152344 213.347656 361.511719 211.9375 361.9375 C 210.527344 362.367188 209.140625 362.863281 207.777344 363.425781 C 206.417969 363.988281 205.085938 364.617188 203.789062 365.3125 C 202.488281 366.007812 201.226562 366.765625 200 367.582031 C 198.773438 368.402344 197.589844 369.28125 196.453125 370.214844 C 195.3125 371.148438 194.222656 372.136719 193.179688 373.179688 C 192.136719 374.222656 191.148438 375.3125 190.214844 376.453125 C 189.28125 377.589844 188.402344 378.773438 187.582031 380 C 186.765625 381.226562 186.007812 382.488281 185.3125 383.789062 C 184.617188 385.085938 183.988281 386.417969 183.425781 387.777344 C 182.863281 389.140625 182.367188 390.527344 181.9375 391.9375 C 181.511719 393.347656 181.152344 394.773438 180.863281 396.222656 C 180.578125 397.667969 180.359375 399.121094 180.214844 400.589844 C 180.070312 402.054688 180 403.527344 180 405 C 180 406.472656 180.070312 407.945312 180.214844 409.410156 C 180.359375 410.878906 180.578125 412.332031 180.863281 413.777344 C 181.152344 415.222656 181.511719 416.652344 181.9375 418.0625 C 182.367188 419.472656 182.863281 420.859375 183.425781 422.222656 C 183.988281 423.582031 184.617188 424.914062 185.3125 426.210938 C 186.007812 427.511719 186.765625 428.773438 187.582031 430 C 188.402344 431.226562 189.28125 432.410156 190.214844 433.546875 C 191.148438 434.6875 192.136719 435.777344 193.179688 436.820312 C 194.222656 437.863281 195.3125 438.851562 196.453125 439.785156 C 197.589844 440.71875 198.773438 441.597656 200 442.417969 C 201.226562 443.234375 202.488281 443.992188 203.789062 444.6875 C 205.085938 445.382812 206.417969 446.011719 207.777344 446.574219 C 209.140625 447.136719 210.527344 447.632812 211.9375 448.0625 C 213.347656 448.488281 214.777344 448.847656 216.222656 449.136719 C 217.667969 449.421875 219.121094 449.640625 220.589844 449.785156 C 222.054688 449.929688 223.527344 450 225 450 L 765 450 C 766.472656 450 767.945312 449.929688 769.410156 449.785156 C 770.878906 449.640625 772.332031 449.421875 773.777344 449.136719 C 775.222656 448.847656 776.652344 448.488281 778.0625 448.0625 C 779.472656 447.632812 780.859375 447.136719 782.21875 446.574219 C 783.582031 446.011719 784.914062 445.382812 786.210938 444.6875 C 787.511719 443.992188 788.773438 443.234375 790 442.417969 C 791.226562 441.597656 792.410156 440.71875 793.546875 439.785156 C 794.6875 438.851562 795.777344 437.863281 796.820312 436.820312 C 797.863281 435.777344 798.851562 434.6875 799.785156 433.546875 C 800.71875 432.410156 801.597656 431.226562 802.414062 430 C 803.234375 428.773438 803.992188 427.511719 804.6875 426.210938 C 805.382812 424.914062 806.011719 423.582031 806.574219 422.222656 C 807.136719 420.859375 807.632812 419.472656 808.0625 418.0625 C 808.488281 416.652344 808.847656 415.222656 809.136719 413.777344 C 809.421875 412.332031 809.640625 410.878906 809.785156 409.410156 C 809.925781 407.945312 810 406.472656 810 405 C 810 403.527344 809.925781 402.054688 809.785156 400.589844 C 809.640625 399.121094 809.421875 397.667969 809.136719 396.222656 C 808.847656 394.773438 808.488281 393.347656 808.0625 391.9375 C 807.632812 390.527344 807.136719 389.140625 806.574219 387.777344 C 806.011719 386.417969 805.382812 385.085938 804.6875 383.785156 C 803.992188 382.488281 803.234375 381.226562 802.414062 380 C 801.597656 378.773438 800.71875 377.589844 799.785156 376.453125 C 798.851562 375.3125 797.863281 374.222656 796.820312 373.179688 C 795.777344 372.136719 794.6875 371.148438 793.546875 370.214844 C 792.410156 369.28125 791.226562 368.402344 790 367.582031 C 788.773438 366.765625 787.511719 366.007812 786.210938 365.3125 C 784.914062 364.617188 783.582031 363.988281 782.21875 363.425781 C 780.859375 362.863281 779.472656 362.367188 778.0625 361.9375 C 776.652344 361.511719 775.222656 361.152344 773.777344 360.863281 C 772.332031 360.578125 770.878906 360.359375 769.410156 360.214844 C 767.945312 360.070312 766.472656 360 765 360 Z M 765 360 " clip-rule="nonzero"/></clipPath><linearGradient x1="8.49873" gradientTransform="matrix(45, 0, 0, 45, -44.999996, -44.99998)" y1="14.035637" x2="15.50151" gradientUnits="userSpaceOnUse" y2="5.964571" id="abc6c730dd"><stop stop-opacity="1" stop-color="rgb(97.57843%, 69.065857%, 13.009644%)" offset="0"/><stop stop-opacity="1" stop-color="rgb(97.554016%, 68.936157%, 13.130188%)" offset="0.015625"/><stop stop-opacity="1" stop-color="rgb(97.50824%, 68.676758%, 13.371277%)" offset="0.03125"/><stop stop-opacity="1" stop-color="rgb(97.460938%, 68.417358%, 13.612366%)" offset="0.046875"/><stop stop-opacity="1" stop-color="rgb(97.413635%, 68.159485%, 13.853455%)" offset="0.0625"/><stop stop-opacity="1" stop-color="rgb(97.366333%, 67.900085%, 14.093018%)" offset="0.078125"/><stop stop-opacity="1" stop-color="rgb(97.319031%, 67.640686%, 14.334106%)" offset="0.09375"/><stop stop-opacity="1" stop-color="rgb(97.273254%, 67.381287%, 14.575195%)" offset="0.109375"/><stop stop-opacity="1" stop-color="rgb(97.225952%, 67.123413%, 14.816284%)" offset="0.125"/><stop stop-opacity="1" stop-color="rgb(97.17865%, 66.864014%, 15.057373%)" offset="0.140625"/><stop stop-opacity="1" stop-color="rgb(97.131348%, 66.604614%, 15.298462%)" offset="0.141373"/><stop stop-opacity="1" stop-color="rgb(97.108459%, 66.47644%, 15.419006%)" offset="0.15625"/><stop stop-opacity="1" stop-color="rgb(97.085571%, 66.346741%, 15.539551%)" offset="0.171875"/><stop stop-opacity="1" stop-color="rgb(97.038269%, 66.087341%, 15.779114%)" offset="0.1875"/><stop stop-opacity="1" stop-color="rgb(96.990967%, 65.827942%, 16.020203%)" offset="0.203125"/><stop stop-opacity="1" stop-color="rgb(96.943665%, 65.570068%, 16.261292%)" offset="0.21875"/><stop stop-opacity="1" stop-color="rgb(96.896362%, 65.310669%, 16.50238%)" offset="0.234375"/><stop stop-opacity="1" stop-color="rgb(96.850586%, 65.05127%, 16.743469%)" offset="0.25"/><stop stop-opacity="1" stop-color="rgb(96.803284%, 64.79187%, 16.984558%)" offset="0.265625"/><stop stop-opacity="1" stop-color="rgb(96.755981%, 64.533997%, 17.225647%)" offset="0.28125"/><stop stop-opacity="1" stop-color="rgb(96.708679%, 64.274597%, 17.466736%)" offset="0.296875"/><stop stop-opacity="1" stop-color="rgb(96.661377%, 64.015198%, 17.706299%)" offset="0.3125"/><stop stop-opacity="1" stop-color="rgb(96.615601%, 63.757324%, 17.947388%)" offset="0.328125"/><stop stop-opacity="1" stop-color="rgb(96.568298%, 63.497925%, 18.188477%)" offset="0.34375"/><stop stop-opacity="1" stop-color="rgb(96.520996%, 63.238525%, 18.429565%)" offset="0.359375"/><stop stop-opacity="1" stop-color="rgb(96.473694%, 62.980652%, 18.670654%)" offset="0.375"/><stop stop-opacity="1" stop-color="rgb(96.427917%, 62.721252%, 18.911743%)" offset="0.390625"/><stop stop-opacity="1" stop-color="rgb(96.380615%, 62.461853%, 19.152832%)" offset="0.40625"/><stop stop-opacity="1" stop-color="rgb(96.333313%, 62.202454%, 19.392395%)" offset="0.421875"/><stop stop-opacity="1" stop-color="rgb(96.286011%, 61.94458%, 19.633484%)" offset="0.4375"/><stop stop-opacity="1" stop-color="rgb(96.238708%, 61.685181%, 19.874573%)" offset="0.453125"/><stop stop-opacity="1" stop-color="rgb(96.192932%, 61.425781%, 20.115662%)" offset="0.46875"/><stop stop-opacity="1" stop-color="rgb(96.14563%, 61.167908%, 20.35675%)" offset="0.484375"/><stop stop-opacity="1" stop-color="rgb(96.098328%, 60.908508%, 20.597839%)" offset="0.5"/><stop stop-opacity="1" stop-color="rgb(96.051025%, 60.649109%, 20.838928%)" offset="0.515625"/><stop stop-opacity="1" stop-color="rgb(96.005249%, 60.391235%, 21.078491%)" offset="0.53125"/><stop stop-opacity="1" stop-color="rgb(95.957947%, 60.131836%, 21.31958%)" offset="0.546875"/><stop stop-opacity="1" stop-color="rgb(95.910645%, 59.872437%, 21.560669%)" offset="0.5625"/><stop stop-opacity="1" stop-color="rgb(95.863342%, 59.613037%, 21.801758%)" offset="0.578125"/><stop stop-opacity="1" stop-color="rgb(95.81604%, 59.355164%, 22.042847%)" offset="0.59375"/><stop stop-opacity="1" stop-color="rgb(95.770264%, 59.095764%, 22.283936%)" offset="0.609375"/><stop stop-opacity="1" stop-color="rgb(95.722961%, 58.836365%, 22.525024%)" offset="0.625"/><stop stop-opacity="1" stop-color="rgb(95.675659%, 58.578491%, 22.764587%)" offset="0.640625"/><stop stop-opacity="1" stop-color="rgb(95.628357%, 58.319092%, 23.005676%)" offset="0.65625"/><stop stop-opacity="1" stop-color="rgb(95.581055%, 58.059692%, 23.246765%)" offset="0.671875"/><stop stop-opacity="1" stop-color="rgb(95.535278%, 57.801819%, 23.487854%)" offset="0.6875"/><stop stop-opacity="1" stop-color="rgb(95.487976%, 57.542419%, 23.728943%)" offset="0.703125"/><stop stop-opacity="1" stop-color="rgb(95.440674%, 57.28302%, 23.970032%)" offset="0.71875"/><stop stop-opacity="1" stop-color="rgb(95.393372%, 57.023621%, 24.211121%)" offset="0.734375"/><stop stop-opacity="1" stop-color="rgb(95.347595%, 56.765747%, 24.450684%)" offset="0.75"/><stop stop-opacity="1" stop-color="rgb(95.298767%, 56.488037%, 24.629211%)" offset="0.765625"/><stop stop-opacity="1" stop-color="rgb(95.248413%, 56.173706%, 24.673462%)" offset="0.78125"/><stop stop-opacity="1" stop-color="rgb(95.198059%, 55.838013%, 24.647522%)" offset="0.796875"/><stop stop-opacity="1" stop-color="rgb(95.146179%, 55.503845%, 24.623108%)" offset="0.8125"/><stop stop-opacity="1" stop-color="rgb(95.095825%, 55.168152%, 24.597168%)" offset="0.828125"/><stop stop-opacity="1" stop-color="rgb(95.043945%, 54.833984%, 24.571228%)" offset="0.84375"/><stop stop-opacity="1" stop-color="rgb(94.993591%, 54.498291%, 24.545288%)" offset="0.858627"/><stop stop-opacity="1" stop-color="rgb(94.967651%, 54.33197%, 24.533081%)" offset="0.859375"/><stop stop-opacity="1" stop-color="rgb(94.941711%, 54.164124%, 24.520874%)" offset="0.875"/><stop stop-opacity="1" stop-color="rgb(94.891357%, 53.82843%, 24.494934%)" offset="0.890625"/><stop stop-opacity="1" stop-color="rgb(94.839478%, 53.492737%, 24.468994%)" offset="0.90625"/><stop stop-opacity="1" stop-color="rgb(94.787598%, 53.158569%, 24.443054%)" offset="0.921875"/><stop stop-opacity="1" stop-color="rgb(94.737244%, 52.822876%, 24.417114%)" offset="0.9375"/><stop stop-opacity="1" stop-color="rgb(94.685364%, 52.488708%, 24.3927%)" offset="0.953125"/><stop stop-opacity="1" stop-color="rgb(94.63501%, 52.153015%, 24.36676%)" offset="0.96875"/><stop stop-opacity="1" stop-color="rgb(94.58313%, 51.818848%, 24.34082%)" offset="0.984375"/><stop stop-opacity="1" stop-color="rgb(94.532776%, 51.483154%, 24.31488%)" offset="1"/></linearGradient><clipPath id="440664d6c2"><path d="M 180 540 L 810 540 L 810 630 L 180 630 Z M 180 540 " clip-rule="nonzero"/></clipPath><clipPath id="af878763b0"><path d="M 765 540 L 225 540 C 223.527344 540 222.054688 540.070312 220.589844 540.214844 C 219.121094 540.359375 217.667969 540.578125 216.222656 540.863281 C 214.777344 541.152344 213.347656 541.511719 211.9375 541.9375 C 210.527344 542.367188 209.140625 542.863281 207.777344 543.425781 C 206.417969 543.988281 205.085938 544.617188 203.789062 545.3125 C 202.488281 546.007812 201.226562 546.765625 200 547.582031 C 198.773438 548.402344 197.589844 549.28125 196.453125 550.214844 C 195.3125 551.148438 194.222656 552.136719 193.179688 553.179688 C 192.136719 554.222656 191.148438 555.3125 190.214844 556.453125 C 189.28125 557.589844 188.402344 558.773438 187.582031 560 C 186.765625 561.226562 186.007812 562.488281 185.3125 563.785156 C 184.617188 565.085938 183.988281 566.417969 183.425781 567.777344 C 182.863281 569.140625 182.367188 570.527344 181.9375 571.9375 C 181.511719 573.347656 181.152344 574.777344 180.863281 576.222656 C 180.578125 577.667969 180.359375 579.121094 180.214844 580.589844 C 180.070312 582.054688 180 583.527344 180 585 C 180 586.472656 180.070312 587.945312 180.214844 589.410156 C 180.359375 590.878906 180.578125 592.332031 180.863281 593.777344 C 181.152344 595.222656 181.511719 596.652344 181.9375 598.0625 C 182.367188 599.472656 182.863281 600.859375 183.425781 602.222656 C 183.988281 603.582031 184.617188 604.914062 185.3125 606.210938 C 186.007812 607.511719 186.765625 608.773438 187.582031 610 C 188.402344 611.226562 189.28125 612.410156 190.214844 613.546875 C 191.148438 614.6875 192.136719 615.777344 193.179688 616.820312 C 194.222656 617.863281 195.3125 618.851562 196.453125 619.785156 C 197.589844 620.71875 198.773438 621.597656 200 622.417969 C 201.226562 623.234375 202.488281 623.992188 203.789062 624.6875 C 205.085938 625.382812 206.417969 626.011719 207.777344 626.574219 C 209.140625 627.136719 210.527344 627.632812 211.9375 628.0625 C 213.347656 628.488281 214.777344 628.847656 216.222656 629.136719 C 217.667969 629.421875 219.121094 629.640625 220.589844 629.785156 C 222.054688 629.929688 223.527344 630 225 630 L 765 630 C 766.472656 630 767.945312 629.929688 769.410156 629.785156 C 770.878906 629.640625 772.332031 629.421875 773.777344 629.136719 C 775.222656 628.847656 776.652344 628.488281 778.0625 628.0625 C 779.472656 627.632812 780.859375 627.136719 782.21875 626.574219 C 783.582031 626.011719 784.914062 625.382812 786.210938 624.6875 C 787.511719 623.992188 788.773438 623.234375 790 622.417969 C 791.226562 621.597656 792.410156 620.71875 793.546875 619.785156 C 794.6875 618.851562 795.777344 617.863281 796.820312 616.820312 C 797.863281 615.777344 798.851562 614.6875 799.785156 613.546875 C 800.71875 612.410156 801.597656 611.226562 802.414062 610 C 803.234375 608.773438 803.992188 607.511719 804.6875 606.210938 C 805.382812 604.914062 806.011719 603.582031 806.574219 602.21875 C 807.136719 600.859375 807.632812 599.472656 808.0625 598.0625 C 808.488281 596.652344 808.847656 595.222656 809.136719 593.777344 C 809.421875 592.332031 809.640625 590.878906 809.785156 589.410156 C 809.925781 587.945312 810 586.472656 810 585 C 810 583.527344 809.925781 582.054688 809.785156 580.589844 C 809.640625 579.121094 809.421875 577.667969 809.136719 576.222656 C 808.847656 574.777344 808.488281 573.347656 808.0625 571.9375 C 807.632812 570.527344 807.136719 569.140625 806.574219 567.777344 C 806.011719 566.417969 805.382812 565.085938 804.6875 563.785156 C 803.992188 562.488281 803.234375 561.226562 802.414062 560 C 801.597656 558.773438 800.71875 557.589844 799.785156 556.453125 C 798.851562 555.3125 797.863281 554.222656 796.820312 553.179688 C 795.777344 552.136719 794.6875 551.148438 793.546875 550.214844 C 792.410156 549.28125 791.226562 548.402344 790 547.582031 C 788.773438 546.765625 787.511719 546.007812 786.210938 545.3125 C 784.914062 544.617188 783.582031 543.988281 782.21875 543.425781 C 780.859375 542.863281 779.472656 542.367188 778.0625 541.9375 C 776.652344 541.511719 775.222656 541.152344 773.777344 540.863281 C 772.332031 540.578125 770.878906 540.359375 769.410156 540.214844 C 767.945312 540.070312 766.472656 540 765 540 Z M 765 540 " clip-rule="nonzero"/></clipPath><linearGradient x1="8.498756" gradientTransform="matrix(45, 0, 0, 45, -44.999996, -44.99998)" y1="18.03566" x2="15.501536" gradientUnits="userSpaceOnUse" y2="9.964593" id="cbf2394029"><stop stop-opacity="1" stop-color="rgb(98.428345%, 73.750305%, 8.651733%)" offset="0"/><stop stop-opacity="1" stop-color="rgb(98.403931%, 73.620605%, 8.770752%)" offset="0.015625"/><stop stop-opacity="1" stop-color="rgb(98.358154%, 73.362732%, 9.011841%)" offset="0.03125"/><stop stop-opacity="1" stop-color="rgb(98.310852%, 73.103333%, 9.25293%)" offset="0.046875"/><stop stop-opacity="1" stop-color="rgb(98.26355%, 72.843933%, 9.494019%)" offset="0.0625"/><stop stop-opacity="1" stop-color="rgb(98.216248%, 72.58606%, 9.735107%)" offset="0.078125"/><stop stop-opacity="1" stop-color="rgb(98.168945%, 72.32666%, 9.976196%)" offset="0.09375"/><stop stop-opacity="1" stop-color="rgb(98.123169%, 72.067261%, 10.217285%)" offset="0.109375"/><stop stop-opacity="1" stop-color="rgb(98.075867%, 71.809387%, 10.456848%)" offset="0.125"/><stop stop-opacity="1" stop-color="rgb(98.028564%, 71.549988%, 10.697937%)" offset="0.140625"/><stop stop-opacity="1" stop-color="rgb(97.981262%, 71.290588%, 10.939026%)" offset="0.141373"/><stop stop-opacity="1" stop-color="rgb(97.958374%, 71.160889%, 11.05957%)" offset="0.15625"/><stop stop-opacity="1" stop-color="rgb(97.935486%, 71.031189%, 11.180115%)" offset="0.171875"/><stop stop-opacity="1" stop-color="rgb(97.888184%, 70.773315%, 11.421204%)" offset="0.1875"/><stop stop-opacity="1" stop-color="rgb(97.840881%, 70.513916%, 11.662292%)" offset="0.203125"/><stop stop-opacity="1" stop-color="rgb(97.793579%, 70.254517%, 11.903381%)" offset="0.21875"/><stop stop-opacity="1" stop-color="rgb(97.746277%, 69.996643%, 12.14447%)" offset="0.234375"/><stop stop-opacity="1" stop-color="rgb(97.7005%, 69.737244%, 12.384033%)" offset="0.25"/><stop stop-opacity="1" stop-color="rgb(97.653198%, 69.477844%, 12.625122%)" offset="0.265625"/><stop stop-opacity="1" stop-color="rgb(97.605896%, 69.219971%, 12.866211%)" offset="0.28125"/><stop stop-opacity="1" stop-color="rgb(97.558594%, 68.960571%, 13.1073%)" offset="0.296875"/><stop stop-opacity="1" stop-color="rgb(97.512817%, 68.701172%, 13.348389%)" offset="0.3125"/><stop stop-opacity="1" stop-color="rgb(97.465515%, 68.441772%, 13.589478%)" offset="0.328125"/><stop stop-opacity="1" stop-color="rgb(97.418213%, 68.183899%, 13.830566%)" offset="0.34375"/><stop stop-opacity="1" stop-color="rgb(97.370911%, 67.9245%, 14.070129%)" offset="0.359375"/><stop stop-opacity="1" stop-color="rgb(97.323608%, 67.6651%, 14.311218%)" offset="0.375"/><stop stop-opacity="1" stop-color="rgb(97.277832%, 67.407227%, 14.552307%)" offset="0.390625"/><stop stop-opacity="1" stop-color="rgb(97.23053%, 67.147827%, 14.793396%)" offset="0.40625"/><stop stop-opacity="1" stop-color="rgb(97.183228%, 66.888428%, 15.034485%)" offset="0.421875"/><stop stop-opacity="1" stop-color="rgb(97.135925%, 66.630554%, 15.275574%)" offset="0.4375"/><stop stop-opacity="1" stop-color="rgb(97.088623%, 66.371155%, 15.516663%)" offset="0.453125"/><stop stop-opacity="1" stop-color="rgb(97.042847%, 66.111755%, 15.756226%)" offset="0.46875"/><stop stop-opacity="1" stop-color="rgb(96.995544%, 65.852356%, 15.997314%)" offset="0.484375"/><stop stop-opacity="1" stop-color="rgb(96.948242%, 65.594482%, 16.238403%)" offset="0.5"/><stop stop-opacity="1" stop-color="rgb(96.90094%, 65.335083%, 16.479492%)" offset="0.515625"/><stop stop-opacity="1" stop-color="rgb(96.855164%, 65.075684%, 16.720581%)" offset="0.53125"/><stop stop-opacity="1" stop-color="rgb(96.807861%, 64.81781%, 16.96167%)" offset="0.546875"/><stop stop-opacity="1" stop-color="rgb(96.760559%, 64.558411%, 17.202759%)" offset="0.5625"/><stop stop-opacity="1" stop-color="rgb(96.713257%, 64.299011%, 17.442322%)" offset="0.578125"/><stop stop-opacity="1" stop-color="rgb(96.665955%, 64.041138%, 17.683411%)" offset="0.59375"/><stop stop-opacity="1" stop-color="rgb(96.620178%, 63.781738%, 17.9245%)" offset="0.609375"/><stop stop-opacity="1" stop-color="rgb(96.572876%, 63.522339%, 18.165588%)" offset="0.625"/><stop stop-opacity="1" stop-color="rgb(96.525574%, 63.262939%, 18.406677%)" offset="0.640625"/><stop stop-opacity="1" stop-color="rgb(96.478271%, 63.005066%, 18.647766%)" offset="0.65625"/><stop stop-opacity="1" stop-color="rgb(96.432495%, 62.745667%, 18.888855%)" offset="0.671875"/><stop stop-opacity="1" stop-color="rgb(96.385193%, 62.486267%, 19.128418%)" offset="0.6875"/><stop stop-opacity="1" stop-color="rgb(96.337891%, 62.228394%, 19.369507%)" offset="0.703125"/><stop stop-opacity="1" stop-color="rgb(96.290588%, 61.968994%, 19.610596%)" offset="0.71875"/><stop stop-opacity="1" stop-color="rgb(96.243286%, 61.709595%, 19.851685%)" offset="0.734375"/><stop stop-opacity="1" stop-color="rgb(96.19751%, 61.451721%, 20.092773%)" offset="0.75"/><stop stop-opacity="1" stop-color="rgb(96.150208%, 61.192322%, 20.333862%)" offset="0.765625"/><stop stop-opacity="1" stop-color="rgb(96.102905%, 60.932922%, 20.574951%)" offset="0.78125"/><stop stop-opacity="1" stop-color="rgb(96.055603%, 60.673523%, 20.814514%)" offset="0.796875"/><stop stop-opacity="1" stop-color="rgb(96.008301%, 60.415649%, 21.055603%)" offset="0.8125"/><stop stop-opacity="1" stop-color="rgb(95.962524%, 60.15625%, 21.296692%)" offset="0.828125"/><stop stop-opacity="1" stop-color="rgb(95.915222%, 59.896851%, 21.537781%)" offset="0.84375"/><stop stop-opacity="1" stop-color="rgb(95.86792%, 59.638977%, 21.77887%)" offset="0.858627"/><stop stop-opacity="1" stop-color="rgb(95.845032%, 59.509277%, 21.899414%)" offset="0.859375"/><stop stop-opacity="1" stop-color="rgb(95.820618%, 59.379578%, 22.019958%)" offset="0.875"/><stop stop-opacity="1" stop-color="rgb(95.774841%, 59.120178%, 22.261047%)" offset="0.890625"/><stop stop-opacity="1" stop-color="rgb(95.727539%, 58.862305%, 22.502136%)" offset="0.90625"/><stop stop-opacity="1" stop-color="rgb(95.680237%, 58.602905%, 22.741699%)" offset="0.921875"/><stop stop-opacity="1" stop-color="rgb(95.632935%, 58.343506%, 22.982788%)" offset="0.9375"/><stop stop-opacity="1" stop-color="rgb(95.585632%, 58.084106%, 23.223877%)" offset="0.953125"/><stop stop-opacity="1" stop-color="rgb(95.539856%, 57.826233%, 23.464966%)" offset="0.96875"/><stop stop-opacity="1" stop-color="rgb(95.492554%, 57.566833%, 23.706055%)" offset="0.984375"/><stop stop-opacity="1" stop-color="rgb(95.445251%, 57.307434%, 23.947144%)" offset="1"/></linearGradient><clipPath id="a3628da1b2"><path d="M 180 720 L 810 720 L 810 810 L 180 810 Z M 180 720 " clip-rule="nonzero"/></clipPath><clipPath id="5a80006baf"><path d="M 765 720 L 225 720 C 223.527344 720 222.054688 720.074219 220.589844 720.214844 C 219.121094 720.359375 217.667969 720.578125 216.222656 720.863281 C 214.777344 721.152344 213.347656 721.511719 211.9375 721.9375 C 210.527344 722.367188 209.140625 722.859375 207.777344 723.425781 C 206.417969 723.988281 205.085938 724.617188 203.789062 725.3125 C 202.488281 726.007812 201.226562 726.765625 200 727.582031 C 198.773438 728.402344 197.589844 729.28125 196.453125 730.214844 C 195.3125 731.148438 194.222656 732.136719 193.179688 733.179688 C 192.136719 734.222656 191.148438 735.3125 190.214844 736.453125 C 189.28125 737.589844 188.402344 738.773438 187.582031 740 C 186.765625 741.226562 186.007812 742.488281 185.3125 743.785156 C 184.617188 745.085938 183.988281 746.417969 183.425781 747.777344 C 182.863281 749.140625 182.367188 750.527344 181.9375 751.9375 C 181.511719 753.347656 181.152344 754.777344 180.863281 756.222656 C 180.578125 757.667969 180.359375 759.121094 180.214844 760.589844 C 180.070312 762.054688 180 763.527344 180 765 C 180 766.472656 180.070312 767.945312 180.214844 769.410156 C 180.359375 770.878906 180.578125 772.332031 180.863281 773.777344 C 181.152344 775.222656 181.511719 776.652344 181.9375 778.0625 C 182.367188 779.472656 182.863281 780.859375 183.425781 782.21875 C 183.988281 783.582031 184.617188 784.914062 185.3125 786.210938 C 186.007812 787.511719 186.765625 788.773438 187.582031 790 C 188.402344 791.226562 189.28125 792.410156 190.214844 793.546875 C 191.148438 794.6875 192.136719 795.777344 193.179688 796.820312 C 194.222656 797.863281 195.3125 798.851562 196.453125 799.785156 C 197.589844 800.71875 198.773438 801.597656 200 802.414062 C 201.226562 803.234375 202.488281 803.992188 203.789062 804.6875 C 205.085938 805.382812 206.417969 806.011719 207.777344 806.574219 C 209.140625 807.136719 210.527344 807.632812 211.9375 808.0625 C 213.347656 808.488281 214.777344 808.847656 216.222656 809.136719 C 217.667969 809.421875 219.121094 809.640625 220.589844 809.785156 C 222.054688 809.925781 223.527344 810 225 810 L 765 810 C 766.472656 810 767.945312 809.925781 769.410156 809.785156 C 770.878906 809.640625 772.332031 809.421875 773.777344 809.136719 C 775.222656 808.847656 776.652344 808.488281 778.0625 808.0625 C 779.472656 807.632812 780.859375 807.136719 782.21875 806.574219 C 783.582031 806.011719 784.914062 805.382812 786.210938 804.6875 C 787.511719 803.992188 788.773438 803.234375 790 802.414062 C 791.226562 801.597656 792.410156 800.71875 793.546875 799.785156 C 794.6875 798.851562 795.777344 797.863281 796.820312 796.820312 C 797.863281 795.777344 798.851562 794.6875 799.785156 793.546875 C 800.71875 792.410156 801.597656 791.226562 802.414062 790 C 803.234375 788.773438 803.992188 787.511719 804.6875 786.210938 C 805.382812 784.914062 806.011719 783.582031 806.574219 782.21875 C 807.136719 780.859375 807.632812 779.472656 808.0625 778.0625 C 808.488281 776.652344 808.847656 775.222656 809.136719 773.777344 C 809.421875 772.332031 809.640625 770.878906 809.785156 769.410156 C 809.925781 767.945312 810 766.472656 810 765 C 810 763.527344 809.925781 762.054688 809.785156 760.589844 C 809.640625 759.121094 809.421875 757.667969 809.136719 756.222656 C 808.847656 754.777344 808.488281 753.347656 808.0625 751.9375 C 807.632812 750.527344 807.136719 749.140625 806.574219 747.777344 C 806.011719 746.417969 805.382812 745.085938 804.6875 743.785156 C 803.992188 742.488281 803.234375 741.226562 802.414062 740 C 801.597656 738.773438 800.71875 737.589844 799.785156 736.453125 C 798.851562 735.3125 797.863281 734.222656 796.820312 733.179688 C 795.777344 732.136719 794.6875 731.148438 793.546875 730.214844 C 792.410156 729.28125 791.226562 728.402344 790 727.582031 C 788.773438 726.765625 787.511719 726.007812 786.210938 725.3125 C 784.914062 724.617188 783.582031 723.988281 782.21875 723.425781 C 780.859375 722.859375 779.472656 722.367188 778.0625 721.9375 C 776.652344 721.511719 775.222656 721.152344 773.777344 720.863281 C 772.332031 720.578125 770.878906 720.359375 769.410156 720.214844 C 767.945312 720.074219 766.472656 720 765 720 Z M 765 720 " clip-rule="nonzero"/></clipPath><linearGradient x1="8.498782" gradientTransform="matrix(45, 0, 0, 45, -44.999996, -44.99998)" y1="22.035682" x2="15.501562" gradientUnits="userSpaceOnUse" y2="13.964615" id="cadfbe6c8f"><stop stop-opacity="1" stop-color="rgb(99.198914%, 78.111267%, 4.847717%)" offset="0"/><stop stop-opacity="1" stop-color="rgb(99.191284%, 78.015137%, 4.811096%)" offset="0.03125"/><stop stop-opacity="1" stop-color="rgb(99.160767%, 77.789307%, 4.89502%)" offset="0.046875"/><stop stop-opacity="1" stop-color="rgb(99.113464%, 77.529907%, 5.134583%)" offset="0.0625"/><stop stop-opacity="1" stop-color="rgb(99.066162%, 77.270508%, 5.375671%)" offset="0.078125"/><stop stop-opacity="1" stop-color="rgb(99.020386%, 77.012634%, 5.61676%)" offset="0.09375"/><stop stop-opacity="1" stop-color="rgb(98.973083%, 76.753235%, 5.857849%)" offset="0.109375"/><stop stop-opacity="1" stop-color="rgb(98.925781%, 76.493835%, 6.098938%)" offset="0.125"/><stop stop-opacity="1" stop-color="rgb(98.878479%, 76.235962%, 6.340027%)" offset="0.140625"/><stop stop-opacity="1" stop-color="rgb(98.831177%, 75.976562%, 6.581116%)" offset="0.141373"/><stop stop-opacity="1" stop-color="rgb(98.808289%, 75.846863%, 6.70166%)" offset="0.15625"/><stop stop-opacity="1" stop-color="rgb(98.7854%, 75.717163%, 6.820679%)" offset="0.171875"/><stop stop-opacity="1" stop-color="rgb(98.738098%, 75.45929%, 7.061768%)" offset="0.1875"/><stop stop-opacity="1" stop-color="rgb(98.690796%, 75.19989%, 7.302856%)" offset="0.203125"/><stop stop-opacity="1" stop-color="rgb(98.643494%, 74.940491%, 7.543945%)" offset="0.21875"/><stop stop-opacity="1" stop-color="rgb(98.596191%, 74.681091%, 7.785034%)" offset="0.234375"/><stop stop-opacity="1" stop-color="rgb(98.550415%, 74.423218%, 8.026123%)" offset="0.25"/><stop stop-opacity="1" stop-color="rgb(98.503113%, 74.163818%, 8.267212%)" offset="0.265625"/><stop stop-opacity="1" stop-color="rgb(98.455811%, 73.904419%, 8.508301%)" offset="0.28125"/><stop stop-opacity="1" stop-color="rgb(98.408508%, 73.646545%, 8.747864%)" offset="0.296875"/><stop stop-opacity="1" stop-color="rgb(98.362732%, 73.387146%, 8.988953%)" offset="0.3125"/><stop stop-opacity="1" stop-color="rgb(98.31543%, 73.127747%, 9.230042%)" offset="0.328125"/><stop stop-opacity="1" stop-color="rgb(98.268127%, 72.869873%, 9.47113%)" offset="0.34375"/><stop stop-opacity="1" stop-color="rgb(98.220825%, 72.610474%, 9.712219%)" offset="0.359375"/><stop stop-opacity="1" stop-color="rgb(98.173523%, 72.351074%, 9.953308%)" offset="0.375"/><stop stop-opacity="1" stop-color="rgb(98.127747%, 72.091675%, 10.194397%)" offset="0.390625"/><stop stop-opacity="1" stop-color="rgb(98.080444%, 71.833801%, 10.43396%)" offset="0.40625"/><stop stop-opacity="1" stop-color="rgb(98.033142%, 71.574402%, 10.675049%)" offset="0.421875"/><stop stop-opacity="1" stop-color="rgb(97.98584%, 71.315002%, 10.916138%)" offset="0.4375"/><stop stop-opacity="1" stop-color="rgb(97.940063%, 71.057129%, 11.157227%)" offset="0.453125"/><stop stop-opacity="1" stop-color="rgb(97.892761%, 70.797729%, 11.398315%)" offset="0.46875"/><stop stop-opacity="1" stop-color="rgb(97.845459%, 70.53833%, 11.639404%)" offset="0.484375"/><stop stop-opacity="1" stop-color="rgb(97.798157%, 70.280457%, 11.880493%)" offset="0.5"/><stop stop-opacity="1" stop-color="rgb(97.750854%, 70.021057%, 12.120056%)" offset="0.515625"/><stop stop-opacity="1" stop-color="rgb(97.705078%, 69.761658%, 12.361145%)" offset="0.53125"/><stop stop-opacity="1" stop-color="rgb(97.657776%, 69.502258%, 12.602234%)" offset="0.546875"/><stop stop-opacity="1" stop-color="rgb(97.610474%, 69.244385%, 12.843323%)" offset="0.5625"/><stop stop-opacity="1" stop-color="rgb(97.563171%, 68.984985%, 13.084412%)" offset="0.578125"/><stop stop-opacity="1" stop-color="rgb(97.515869%, 68.725586%, 13.3255%)" offset="0.59375"/><stop stop-opacity="1" stop-color="rgb(97.470093%, 68.467712%, 13.566589%)" offset="0.609375"/><stop stop-opacity="1" stop-color="rgb(97.422791%, 68.208313%, 13.806152%)" offset="0.625"/><stop stop-opacity="1" stop-color="rgb(97.375488%, 67.948914%, 14.047241%)" offset="0.640625"/><stop stop-opacity="1" stop-color="rgb(97.328186%, 67.69104%, 14.28833%)" offset="0.65625"/><stop stop-opacity="1" stop-color="rgb(97.28241%, 67.431641%, 14.529419%)" offset="0.671875"/><stop stop-opacity="1" stop-color="rgb(97.235107%, 67.172241%, 14.770508%)" offset="0.6875"/><stop stop-opacity="1" stop-color="rgb(97.187805%, 66.912842%, 15.011597%)" offset="0.703125"/><stop stop-opacity="1" stop-color="rgb(97.140503%, 66.654968%, 15.252686%)" offset="0.71875"/><stop stop-opacity="1" stop-color="rgb(97.093201%, 66.395569%, 15.492249%)" offset="0.734375"/><stop stop-opacity="1" stop-color="rgb(97.047424%, 66.136169%, 15.733337%)" offset="0.75"/><stop stop-opacity="1" stop-color="rgb(97.000122%, 65.878296%, 15.974426%)" offset="0.765625"/><stop stop-opacity="1" stop-color="rgb(96.95282%, 65.618896%, 16.215515%)" offset="0.78125"/><stop stop-opacity="1" stop-color="rgb(96.905518%, 65.359497%, 16.456604%)" offset="0.796875"/><stop stop-opacity="1" stop-color="rgb(96.859741%, 65.101624%, 16.697693%)" offset="0.8125"/><stop stop-opacity="1" stop-color="rgb(96.812439%, 64.842224%, 16.938782%)" offset="0.828125"/><stop stop-opacity="1" stop-color="rgb(96.765137%, 64.582825%, 17.179871%)" offset="0.84375"/><stop stop-opacity="1" stop-color="rgb(96.717834%, 64.323425%, 17.419434%)" offset="0.858627"/><stop stop-opacity="1" stop-color="rgb(96.694946%, 64.195251%, 17.539978%)" offset="0.859375"/><stop stop-opacity="1" stop-color="rgb(96.670532%, 64.065552%, 17.660522%)" offset="0.875"/><stop stop-opacity="1" stop-color="rgb(96.624756%, 63.806152%, 17.901611%)" offset="0.890625"/><stop stop-opacity="1" stop-color="rgb(96.577454%, 63.546753%, 18.1427%)" offset="0.90625"/><stop stop-opacity="1" stop-color="rgb(96.530151%, 63.288879%, 18.383789%)" offset="0.921875"/><stop stop-opacity="1" stop-color="rgb(96.482849%, 63.02948%, 18.624878%)" offset="0.9375"/><stop stop-opacity="1" stop-color="rgb(96.435547%, 62.770081%, 18.865967%)" offset="0.953125"/><stop stop-opacity="1" stop-color="rgb(96.389771%, 62.512207%, 19.10553%)" offset="0.96875"/><stop stop-opacity="1" stop-color="rgb(96.342468%, 62.252808%, 19.346619%)" offset="0.984375"/><stop stop-opacity="1" stop-color="rgb(96.295166%, 61.993408%, 19.587708%)" offset="1"/></linearGradient><clipPath id="687e1e4c3e"><path d="M 0 0 L 90 0 L 90 90 L 0 90 Z M 0 0 " clip-rule="nonzero"/></clipPath><clipPath id="1b91a39f80"><path d="M 90 45 C 90 46.472656 89.929688 47.945312 89.785156 49.410156 C 89.640625 50.878906 89.421875 52.332031 89.136719 53.777344 C 88.847656 55.222656 88.488281 56.652344 88.0625 58.0625 C 87.632812 59.472656 87.136719 60.859375 86.574219 62.222656 C 86.011719 63.582031 85.382812 64.914062 84.6875 66.210938 C 83.992188 67.511719 83.234375 68.773438 82.417969 70 C 81.597656 71.226562 80.71875 72.410156 79.785156 73.546875 C 78.851562 74.6875 77.863281 75.777344 76.820312 76.820312 C 75.777344 77.863281 74.6875 78.851562 73.546875 79.785156 C 72.410156 80.71875 71.226562 81.597656 70 82.417969 C 68.773438 83.234375 67.511719 83.992188 66.210938 84.6875 C 64.914062 85.382812 63.582031 86.011719 62.222656 86.574219 C 60.859375 87.136719 59.472656 87.632812 58.0625 88.0625 C 56.652344 88.488281 55.222656 88.847656 53.777344 89.136719 C 52.332031 89.421875 50.878906 89.640625 49.410156 89.785156 C 47.945312 89.929688 46.472656 90 45 90 C 43.527344 90 42.054688 89.929688 40.589844 89.785156 C 39.121094 89.640625 37.667969 89.421875 36.222656 89.136719 C 34.777344 88.847656 33.347656 88.488281 31.9375 88.0625 C 30.527344 87.632812 29.140625 87.136719 27.777344 86.574219 C 26.417969 86.011719 25.085938 85.382812 23.789062 84.6875 C 22.488281 83.992188 21.226562 83.234375 20 82.417969 C 18.773438 81.597656 17.589844 80.71875 16.453125 79.785156 C 15.3125 78.851562 14.222656 77.863281 13.179688 76.820312 C 12.136719 75.777344 11.148438 74.6875 10.214844 73.546875 C 9.28125 72.410156 8.402344 71.226562 7.582031 70 C 6.765625 68.773438 6.007812 67.511719 5.3125 66.210938 C 4.617188 64.914062 3.988281 63.582031 3.425781 62.222656 C 2.863281 60.859375 2.367188 59.472656 1.9375 58.0625 C 1.511719 56.652344 1.152344 55.222656 0.863281 53.777344 C 0.578125 52.332031 0.359375 50.878906 0.214844 49.410156 C 0.0703125 47.945312 0 46.472656 0 45 C 0 43.527344 0.0703125 42.054688 0.214844 40.589844 C 0.359375 39.121094 0.578125 37.667969 0.863281 36.222656 C 1.152344 34.777344 1.511719 33.347656 1.9375 31.9375 C 2.367188 30.527344 2.863281 29.140625 3.425781 27.777344 C 3.988281 26.417969 4.617188 25.085938 5.3125 23.789062 C 6.007812 22.488281 6.765625 21.226562 7.582031 20 C 8.402344 18.773438 9.28125 17.589844 10.214844 16.453125 C 11.148438 15.3125 12.136719 14.222656 13.179688 13.179688 C 14.222656 12.136719 15.3125 11.148438 16.453125 10.214844 C 17.589844 9.28125 18.773438 8.402344 20 7.582031 C 21.226562 6.765625 22.488281 6.007812 23.789062 5.3125 C 25.085938 4.617188 26.417969 3.988281 27.777344 3.425781 C 29.140625 2.863281 30.527344 2.367188 31.9375 1.9375 C 33.347656 1.511719 34.777344 1.152344 36.222656 0.863281 C 37.667969 0.578125 39.121094 0.359375 40.589844 0.214844 C 42.054688 0.0703125 43.527344 0 45 0 C 46.472656 0 47.945312 0.0703125 49.410156 0.214844 C 50.878906 0.359375 52.332031 0.578125 53.777344 0.863281 C 55.222656 1.152344 56.652344 1.511719 58.0625 1.9375 C 59.472656 2.367188 60.859375 2.863281 62.222656 3.425781 C 63.582031 3.988281 64.914062 4.617188 66.210938 5.3125 C 67.511719 6.007812 68.773438 6.765625 70 7.582031 C 71.226562 8.402344 72.410156 9.28125 73.546875 10.214844 C 74.6875 11.148438 75.777344 12.136719 76.820312 13.179688 C 77.863281 14.222656 78.851562 15.3125 79.785156 16.453125 C 80.71875 17.589844 81.597656 18.773438 82.417969 20 C 83.234375 21.226562 83.992188 22.488281 84.6875 23.789062 C 85.382812 25.085938 86.011719 26.417969 86.574219 27.777344 C 87.136719 29.140625 87.632812 30.527344 88.0625 31.9375 C 88.488281 33.347656 88.847656 34.777344 89.136719 36.222656 C 89.421875 37.667969 89.640625 39.121094 89.785156 40.589844 C 89.929688 42.054688 90 43.527344 90 45 Z M 90 45 " clip-rule="nonzero"/></clipPath><linearGradient x1="1.075686" gradientTransform="matrix(45, 0, 0, 45, -44.999996, -44.99998)" y1="3.065668" x2="2.924658" gradientUnits="userSpaceOnUse" y2="0.934631" id="72a98c70bd"><stop stop-opacity="1" stop-color="rgb(96.615601%, 63.760376%, 17.945862%)" offset="0"/><stop stop-opacity="1" stop-color="rgb(96.591187%, 63.623047%, 18.07251%)" offset="0.0625"/><stop stop-opacity="1" stop-color="rgb(96.540833%, 63.348389%, 18.325806%)" offset="0.125"/><stop stop-opacity="1" stop-color="rgb(96.492004%, 63.075256%, 18.580627%)" offset="0.1875"/><stop stop-opacity="1" stop-color="rgb(96.44165%, 62.802124%, 18.835449%)" offset="0.25"/><stop stop-opacity="1" stop-color="rgb(96.392822%, 62.528992%, 19.090271%)" offset="0.3125"/><stop stop-opacity="1" stop-color="rgb(96.342468%, 62.254333%, 19.343567%)" offset="0.375"/><stop stop-opacity="1" stop-color="rgb(96.29364%, 61.981201%, 19.598389%)" offset="0.4375"/><stop stop-opacity="1" stop-color="rgb(96.243286%, 61.708069%, 19.85321%)" offset="0.464565"/><stop stop-opacity="1" stop-color="rgb(96.218872%, 61.572266%, 19.979858%)" offset="0.5"/><stop stop-opacity="1" stop-color="rgb(96.194458%, 61.434937%, 20.106506%)" offset="0.535435"/><stop stop-opacity="1" stop-color="rgb(96.170044%, 61.297607%, 20.23468%)" offset="0.5625"/><stop stop-opacity="1" stop-color="rgb(96.144104%, 61.160278%, 20.361328%)" offset="0.625"/><stop stop-opacity="1" stop-color="rgb(96.095276%, 60.887146%, 20.61615%)" offset="0.6875"/><stop stop-opacity="1" stop-color="rgb(96.044922%, 60.614014%, 20.870972%)" offset="0.75"/><stop stop-opacity="1" stop-color="rgb(95.996094%, 60.340881%, 21.124268%)" offset="0.8125"/><stop stop-opacity="1" stop-color="rgb(95.94574%, 60.067749%, 21.379089%)" offset="0.875"/><stop stop-opacity="1" stop-color="rgb(95.896912%, 59.793091%, 21.633911%)" offset="0.9375"/><stop stop-opacity="1" stop-color="rgb(95.846558%, 59.519958%, 21.888733%)" offset="1"/></linearGradient><clipPath id="c05f934715"><path d="M 0 180 L 90 180 L 90 270 L 0 270 Z M 0 180 " clip-rule="nonzero"/></clipPath><clipPath id="491dcb7245"><path d="M 90 225 C 90 226.472656 89.929688 227.945312 89.785156 229.410156 C 89.640625 230.878906 89.421875 232.332031 89.136719 233.777344 C 88.847656 235.222656 88.488281 236.652344 88.0625 238.0625 C 87.632812 239.472656 87.136719 240.859375 86.574219 242.222656 C 86.011719 243.582031 85.382812 244.914062 84.6875 246.210938 C 83.992188 247.511719 83.234375 248.773438 82.417969 250 C 81.597656 251.226562 80.71875 252.410156 79.785156 253.546875 C 78.851562 254.6875 77.863281 255.777344 76.820312 256.820312 C 75.777344 257.863281 74.6875 258.851562 73.546875 259.785156 C 72.410156 260.71875 71.226562 261.597656 70 262.417969 C 68.773438 263.234375 67.511719 263.992188 66.210938 264.6875 C 64.914062 265.382812 63.582031 266.011719 62.222656 266.574219 C 60.859375 267.136719 59.472656 267.632812 58.0625 268.0625 C 56.652344 268.488281 55.222656 268.847656 53.777344 269.136719 C 52.332031 269.421875 50.878906 269.640625 49.410156 269.785156 C 47.945312 269.929688 46.472656 270 45 270 C 43.527344 270 42.054688 269.929688 40.589844 269.785156 C 39.121094 269.640625 37.667969 269.421875 36.222656 269.136719 C 34.777344 268.847656 33.347656 268.488281 31.9375 268.0625 C 30.527344 267.632812 29.140625 267.136719 27.777344 266.574219 C 26.417969 266.011719 25.085938 265.382812 23.789062 264.6875 C 22.488281 263.992188 21.226562 263.234375 20 262.417969 C 18.773438 261.597656 17.589844 260.71875 16.453125 259.785156 C 15.3125 258.851562 14.222656 257.863281 13.179688 256.820312 C 12.136719 255.777344 11.148438 254.6875 10.214844 253.546875 C 9.28125 252.410156 8.402344 251.226562 7.582031 250 C 6.765625 248.773438 6.007812 247.511719 5.3125 246.210938 C 4.617188 244.914062 3.988281 243.582031 3.425781 242.222656 C 2.863281 240.859375 2.367188 239.472656 1.9375 238.0625 C 1.511719 236.652344 1.152344 235.222656 0.863281 233.777344 C 0.578125 232.332031 0.359375 230.878906 0.214844 229.410156 C 0.0703125 227.945312 0 226.472656 0 225 C 0 223.527344 0.0703125 222.054688 0.214844 220.589844 C 0.359375 219.121094 0.578125 217.667969 0.863281 216.222656 C 1.152344 214.777344 1.511719 213.347656 1.9375 211.9375 C 2.367188 210.527344 2.863281 209.140625 3.425781 207.777344 C 3.988281 206.417969 4.617188 205.085938 5.3125 203.789062 C 6.007812 202.488281 6.765625 201.226562 7.582031 200 C 8.402344 198.773438 9.28125 197.589844 10.214844 196.453125 C 11.148438 195.3125 12.136719 194.222656 13.179688 193.179688 C 14.222656 192.136719 15.3125 191.148438 16.453125 190.214844 C 17.589844 189.28125 18.773438 188.402344 20 187.582031 C 21.226562 186.765625 22.488281 186.007812 23.789062 185.3125 C 25.085938 184.617188 26.417969 183.988281 27.777344 183.425781 C 29.140625 182.863281 30.527344 182.367188 31.9375 181.9375 C 33.347656 181.511719 34.777344 181.152344 36.222656 180.863281 C 37.667969 180.578125 39.121094 180.359375 40.589844 180.214844 C 42.054688 180.070312 43.527344 180 45 180 C 46.472656 180 47.945312 180.070312 49.410156 180.214844 C 50.878906 180.359375 52.332031 180.578125 53.777344 180.863281 C 55.222656 181.152344 56.652344 181.511719 58.0625 181.9375 C 59.472656 182.367188 60.859375 182.863281 62.222656 183.425781 C 63.582031 183.988281 64.914062 184.617188 66.210938 185.3125 C 67.511719 186.007812 68.773438 186.765625 70 187.582031 C 71.226562 188.402344 72.410156 189.28125 73.546875 190.214844 C 74.6875 191.148438 75.777344 192.136719 76.820312 193.179688 C 77.863281 194.222656 78.851562 195.3125 79.785156 196.453125 C 80.71875 197.589844 81.597656 198.773438 82.417969 200 C 83.234375 201.226562 83.992188 202.488281 84.6875 203.789062 C 85.382812 205.085938 86.011719 206.417969 86.574219 207.777344 C 87.136719 209.140625 87.632812 210.527344 88.0625 211.9375 C 88.488281 213.347656 88.847656 214.777344 89.136719 216.222656 C 89.421875 217.667969 89.640625 219.121094 89.785156 220.589844 C 89.929688 222.054688 90 223.527344 90 225 Z M 90 225 " clip-rule="nonzero"/></clipPath><linearGradient x1="1.075711" gradientTransform="matrix(45, 0, 0, 45, -44.999996, -44.99998)" y1="7.06569" x2="2.924684" gradientUnits="userSpaceOnUse" y2="4.934653" id="8ac01bf64c"><stop stop-opacity="1" stop-color="rgb(97.465515%, 68.444824%, 13.586426%)" offset="0"/><stop stop-opacity="1" stop-color="rgb(97.441101%, 68.307495%, 13.713074%)" offset="0.0625"/><stop stop-opacity="1" stop-color="rgb(97.390747%, 68.034363%, 13.967896%)" offset="0.125"/><stop stop-opacity="1" stop-color="rgb(97.341919%, 67.76123%, 14.222717%)" offset="0.1875"/><stop stop-opacity="1" stop-color="rgb(97.291565%, 67.488098%, 14.476013%)" offset="0.25"/><stop stop-opacity="1" stop-color="rgb(97.242737%, 67.21344%, 14.730835%)" offset="0.3125"/><stop stop-opacity="1" stop-color="rgb(97.192383%, 66.940308%, 14.985657%)" offset="0.375"/><stop stop-opacity="1" stop-color="rgb(97.143555%, 66.667175%, 15.238953%)" offset="0.4375"/><stop stop-opacity="1" stop-color="rgb(97.093201%, 66.394043%, 15.493774%)" offset="0.464565"/><stop stop-opacity="1" stop-color="rgb(97.068787%, 66.25824%, 15.621948%)" offset="0.5"/><stop stop-opacity="1" stop-color="rgb(97.044373%, 66.120911%, 15.748596%)" offset="0.535435"/><stop stop-opacity="1" stop-color="rgb(97.019958%, 65.983582%, 15.87677%)" offset="0.5625"/><stop stop-opacity="1" stop-color="rgb(96.994019%, 65.846252%, 16.003418%)" offset="0.625"/><stop stop-opacity="1" stop-color="rgb(96.94519%, 65.57312%, 16.256714%)" offset="0.6875"/><stop stop-opacity="1" stop-color="rgb(96.894836%, 65.299988%, 16.511536%)" offset="0.75"/><stop stop-opacity="1" stop-color="rgb(96.846008%, 65.026855%, 16.766357%)" offset="0.8125"/><stop stop-opacity="1" stop-color="rgb(96.795654%, 64.752197%, 17.021179%)" offset="0.875"/><stop stop-opacity="1" stop-color="rgb(96.746826%, 64.479065%, 17.274475%)" offset="0.9375"/><stop stop-opacity="1" stop-color="rgb(96.696472%, 64.205933%, 17.529297%)" offset="1"/></linearGradient><clipPath id="7f2894a642"><path d="M 0 360 L 90 360 L 90 450 L 0 450 Z M 0 360 " clip-rule="nonzero"/></clipPath><clipPath id="92f81697cb"><path d="M 90 405 C 90 406.472656 89.929688 407.945312 89.785156 409.410156 C 89.640625 410.878906 89.421875 412.332031 89.136719 413.777344 C 88.847656 415.222656 88.488281 416.652344 88.0625 418.0625 C 87.632812 419.472656 87.136719 420.859375 86.574219 422.222656 C 86.011719 423.582031 85.382812 424.914062 84.6875 426.210938 C 83.992188 427.511719 83.234375 428.773438 82.417969 430 C 81.597656 431.226562 80.71875 432.410156 79.785156 433.546875 C 78.851562 434.6875 77.863281 435.777344 76.820312 436.820312 C 75.777344 437.863281 74.6875 438.851562 73.546875 439.785156 C 72.410156 440.71875 71.226562 441.597656 70 442.417969 C 68.773438 443.234375 67.511719 443.992188 66.210938 444.6875 C 64.914062 445.382812 63.582031 446.011719 62.222656 446.574219 C 60.859375 447.136719 59.472656 447.632812 58.0625 448.0625 C 56.652344 448.488281 55.222656 448.847656 53.777344 449.136719 C 52.332031 449.421875 50.878906 449.640625 49.410156 449.785156 C 47.945312 449.929688 46.472656 450 45 450 C 43.527344 450 42.054688 449.929688 40.589844 449.785156 C 39.121094 449.640625 37.667969 449.421875 36.222656 449.136719 C 34.777344 448.847656 33.347656 448.488281 31.9375 448.0625 C 30.527344 447.632812 29.140625 447.136719 27.777344 446.574219 C 26.417969 446.011719 25.085938 445.382812 23.789062 444.6875 C 22.488281 443.992188 21.226562 443.234375 20 442.417969 C 18.773438 441.597656 17.589844 440.71875 16.453125 439.785156 C 15.3125 438.851562 14.222656 437.863281 13.179688 436.820312 C 12.136719 435.777344 11.148438 434.6875 10.214844 433.546875 C 9.28125 432.410156 8.402344 431.226562 7.582031 430 C 6.765625 428.773438 6.007812 427.511719 5.3125 426.210938 C 4.617188 424.914062 3.988281 423.582031 3.425781 422.222656 C 2.863281 420.859375 2.367188 419.472656 1.9375 418.0625 C 1.511719 416.652344 1.152344 415.222656 0.863281 413.777344 C 0.578125 412.332031 0.359375 410.878906 0.214844 409.410156 C 0.0703125 407.945312 0 406.472656 0 405 C 0 403.527344 0.0703125 402.054688 0.214844 400.589844 C 0.359375 399.121094 0.578125 397.667969 0.863281 396.222656 C 1.152344 394.773438 1.511719 393.347656 1.9375 391.9375 C 2.367188 390.527344 2.863281 389.140625 3.425781 387.777344 C 3.988281 386.417969 4.617188 385.085938 5.3125 383.785156 C 6.007812 382.488281 6.765625 381.226562 7.582031 380 C 8.402344 378.773438 9.28125 377.589844 10.214844 376.453125 C 11.148438 375.3125 12.136719 374.222656 13.179688 373.179688 C 14.222656 372.136719 15.3125 371.148438 16.453125 370.214844 C 17.589844 369.28125 18.773438 368.402344 20 367.582031 C 21.226562 366.765625 22.488281 366.007812 23.789062 365.3125 C 25.085938 364.617188 26.417969 363.988281 27.777344 363.425781 C 29.140625 362.863281 30.527344 362.367188 31.9375 361.9375 C 33.347656 361.511719 34.777344 361.152344 36.222656 360.863281 C 37.667969 360.578125 39.121094 360.359375 40.589844 360.214844 C 42.054688 360.070312 43.527344 360 45 360 C 46.472656 360 47.945312 360.070312 49.410156 360.214844 C 50.878906 360.359375 52.332031 360.578125 53.777344 360.863281 C 55.222656 361.152344 56.652344 361.511719 58.0625 361.9375 C 59.472656 362.367188 60.859375 362.863281 62.222656 363.425781 C 63.582031 363.988281 64.914062 364.617188 66.210938 365.3125 C 67.511719 366.007812 68.773438 366.765625 70 367.582031 C 71.226562 368.402344 72.410156 369.28125 73.546875 370.214844 C 74.6875 371.148438 75.777344 372.136719 76.820312 373.179688 C 77.863281 374.222656 78.851562 375.3125 79.785156 376.453125 C 80.71875 377.589844 81.597656 378.773438 82.417969 380 C 83.234375 381.226562 83.992188 382.488281 84.6875 383.789062 C 85.382812 385.085938 86.011719 386.417969 86.574219 387.777344 C 87.136719 389.140625 87.632812 390.527344 88.0625 391.9375 C 88.488281 393.347656 88.847656 394.773438 89.136719 396.222656 C 89.421875 397.667969 89.640625 399.121094 89.785156 400.589844 C 89.929688 402.054688 90 403.527344 90 405 Z M 90 405 " clip-rule="nonzero"/></clipPath><linearGradient x1="1.075738" gradientTransform="matrix(45, 0, 0, 45, -44.999996, -44.99998)" y1="11.065713" x2="2.924711" gradientUnits="userSpaceOnUse" y2="8.934676" id="cc79f4e025"><stop stop-opacity="1" stop-color="rgb(98.31543%, 73.130798%, 9.228516%)" offset="0"/><stop stop-opacity="1" stop-color="rgb(98.291016%, 72.993469%, 9.355164%)" offset="0.0625"/><stop stop-opacity="1" stop-color="rgb(98.240662%, 72.720337%, 9.608459%)" offset="0.125"/><stop stop-opacity="1" stop-color="rgb(98.191833%, 72.447205%, 9.863281%)" offset="0.1875"/><stop stop-opacity="1" stop-color="rgb(98.141479%, 72.172546%, 10.118103%)" offset="0.25"/><stop stop-opacity="1" stop-color="rgb(98.092651%, 71.899414%, 10.371399%)" offset="0.3125"/><stop stop-opacity="1" stop-color="rgb(98.042297%, 71.626282%, 10.626221%)" offset="0.375"/><stop stop-opacity="1" stop-color="rgb(97.993469%, 71.353149%, 10.881042%)" offset="0.4375"/><stop stop-opacity="1" stop-color="rgb(97.943115%, 71.080017%, 11.135864%)" offset="0.464565"/><stop stop-opacity="1" stop-color="rgb(97.918701%, 70.942688%, 11.262512%)" offset="0.5"/><stop stop-opacity="1" stop-color="rgb(97.894287%, 70.805359%, 11.38916%)" offset="0.535435"/><stop stop-opacity="1" stop-color="rgb(97.869873%, 70.669556%, 11.517334%)" offset="0.5625"/><stop stop-opacity="1" stop-color="rgb(97.843933%, 70.532227%, 11.643982%)" offset="0.625"/><stop stop-opacity="1" stop-color="rgb(97.795105%, 70.259094%, 11.898804%)" offset="0.6875"/><stop stop-opacity="1" stop-color="rgb(97.744751%, 69.985962%, 12.153625%)" offset="0.75"/><stop stop-opacity="1" stop-color="rgb(97.695923%, 69.711304%, 12.406921%)" offset="0.8125"/><stop stop-opacity="1" stop-color="rgb(97.645569%, 69.438171%, 12.661743%)" offset="0.875"/><stop stop-opacity="1" stop-color="rgb(97.596741%, 69.165039%, 12.916565%)" offset="0.9375"/><stop stop-opacity="1" stop-color="rgb(97.546387%, 68.891907%, 13.169861%)" offset="1"/></linearGradient><clipPath id="b2b40fa748"><path d="M 0 540 L 90 540 L 90 630 L 0 630 Z M 0 540 " clip-rule="nonzero"/></clipPath><clipPath id="fc7f0835ea"><path d="M 90 585 C 90 586.472656 89.929688 587.945312 89.785156 589.410156 C 89.640625 590.878906 89.421875 592.332031 89.136719 593.777344 C 88.847656 595.222656 88.488281 596.652344 88.0625 598.0625 C 87.632812 599.472656 87.136719 600.859375 86.574219 602.222656 C 86.011719 603.582031 85.382812 604.914062 84.6875 606.210938 C 83.992188 607.511719 83.234375 608.773438 82.417969 610 C 81.597656 611.226562 80.71875 612.410156 79.785156 613.546875 C 78.851562 614.6875 77.863281 615.777344 76.820312 616.820312 C 75.777344 617.863281 74.6875 618.851562 73.546875 619.785156 C 72.410156 620.71875 71.226562 621.597656 70 622.417969 C 68.773438 623.234375 67.511719 623.992188 66.210938 624.6875 C 64.914062 625.382812 63.582031 626.011719 62.222656 626.574219 C 60.859375 627.136719 59.472656 627.632812 58.0625 628.0625 C 56.652344 628.488281 55.222656 628.847656 53.777344 629.136719 C 52.332031 629.421875 50.878906 629.640625 49.410156 629.785156 C 47.945312 629.929688 46.472656 630 45 630 C 43.527344 630 42.054688 629.929688 40.589844 629.785156 C 39.121094 629.640625 37.667969 629.421875 36.222656 629.136719 C 34.777344 628.847656 33.347656 628.488281 31.9375 628.0625 C 30.527344 627.632812 29.140625 627.136719 27.777344 626.574219 C 26.417969 626.011719 25.085938 625.382812 23.789062 624.6875 C 22.488281 623.992188 21.226562 623.234375 20 622.417969 C 18.773438 621.597656 17.589844 620.71875 16.453125 619.785156 C 15.3125 618.851562 14.222656 617.863281 13.179688 616.820312 C 12.136719 615.777344 11.148438 614.6875 10.214844 613.546875 C 9.28125 612.410156 8.402344 611.226562 7.582031 610 C 6.765625 608.773438 6.007812 607.511719 5.3125 606.210938 C 4.617188 604.914062 3.988281 603.582031 3.425781 602.21875 C 2.863281 600.859375 2.367188 599.472656 1.9375 598.0625 C 1.511719 596.652344 1.152344 595.222656 0.863281 593.777344 C 0.578125 592.332031 0.359375 590.878906 0.214844 589.410156 C 0.0703125 587.945312 0 586.472656 0 585 C 0 583.527344 0.0703125 582.054688 0.214844 580.589844 C 0.359375 579.121094 0.578125 577.667969 0.863281 576.222656 C 1.152344 574.777344 1.511719 573.347656 1.9375 571.9375 C 2.367188 570.527344 2.863281 569.140625 3.425781 567.777344 C 3.988281 566.417969 4.617188 565.085938 5.3125 563.785156 C 6.007812 562.488281 6.765625 561.226562 7.582031 560 C 8.402344 558.773438 9.28125 557.589844 10.214844 556.453125 C 11.148438 555.3125 12.136719 554.222656 13.179688 553.179688 C 14.222656 552.136719 15.3125 551.148438 16.453125 550.214844 C 17.589844 549.28125 18.773438 548.402344 20 547.582031 C 21.226562 546.765625 22.488281 546.007812 23.789062 545.3125 C 25.085938 544.617188 26.417969 543.988281 27.777344 543.425781 C 29.140625 542.863281 30.527344 542.367188 31.9375 541.9375 C 33.347656 541.511719 34.777344 541.152344 36.222656 540.863281 C 37.667969 540.578125 39.121094 540.359375 40.589844 540.214844 C 42.054688 540.070312 43.527344 540 45 540 C 46.472656 540 47.945312 540.070312 49.410156 540.214844 C 50.878906 540.359375 52.332031 540.578125 53.777344 540.863281 C 55.222656 541.152344 56.652344 541.511719 58.0625 541.9375 C 59.472656 542.367188 60.859375 542.863281 62.222656 543.425781 C 63.582031 543.988281 64.914062 544.617188 66.210938 545.3125 C 67.511719 546.007812 68.773438 546.765625 70 547.582031 C 71.226562 548.402344 72.410156 549.28125 73.546875 550.214844 C 74.6875 551.148438 75.777344 552.136719 76.820312 553.179688 C 77.863281 554.222656 78.851562 555.3125 79.785156 556.453125 C 80.71875 557.589844 81.597656 558.773438 82.417969 560 C 83.234375 561.226562 83.992188 562.488281 84.6875 563.785156 C 85.382812 565.085938 86.011719 566.417969 86.574219 567.777344 C 87.136719 569.140625 87.632812 570.527344 88.0625 571.9375 C 88.488281 573.347656 88.847656 574.777344 89.136719 576.222656 C 89.421875 577.667969 89.640625 579.121094 89.785156 580.589844 C 89.929688 582.054688 90 583.527344 90 585 Z M 90 585 " clip-rule="nonzero"/></clipPath><linearGradient x1="1.075764" gradientTransform="matrix(45, 0, 0, 45, -44.999996, -44.99998)" y1="15.065735" x2="2.924737" gradientUnits="userSpaceOnUse" y2="12.934698" id="809c2a1685"><stop stop-opacity="1" stop-color="rgb(99.16687%, 77.816772%, 4.86908%)" offset="0"/><stop stop-opacity="1" stop-color="rgb(99.14093%, 77.679443%, 4.995728%)" offset="0.0625"/><stop stop-opacity="1" stop-color="rgb(99.090576%, 77.406311%, 5.250549%)" offset="0.125"/><stop stop-opacity="1" stop-color="rgb(99.041748%, 77.131653%, 5.503845%)" offset="0.1875"/><stop stop-opacity="1" stop-color="rgb(98.991394%, 76.858521%, 5.758667%)" offset="0.25"/><stop stop-opacity="1" stop-color="rgb(98.942566%, 76.585388%, 6.013489%)" offset="0.3125"/><stop stop-opacity="1" stop-color="rgb(98.892212%, 76.312256%, 6.268311%)" offset="0.375"/><stop stop-opacity="1" stop-color="rgb(98.843384%, 76.039124%, 6.521606%)" offset="0.4375"/><stop stop-opacity="1" stop-color="rgb(98.79303%, 75.764465%, 6.776428%)" offset="0.464565"/><stop stop-opacity="1" stop-color="rgb(98.768616%, 75.628662%, 6.904602%)" offset="0.5"/><stop stop-opacity="1" stop-color="rgb(98.744202%, 75.491333%, 7.03125%)" offset="0.535435"/><stop stop-opacity="1" stop-color="rgb(98.719788%, 75.35553%, 7.159424%)" offset="0.5625"/><stop stop-opacity="1" stop-color="rgb(98.693848%, 75.218201%, 7.286072%)" offset="0.625"/><stop stop-opacity="1" stop-color="rgb(98.64502%, 74.945068%, 7.539368%)" offset="0.6875"/><stop stop-opacity="1" stop-color="rgb(98.594666%, 74.67041%, 7.794189%)" offset="0.75"/><stop stop-opacity="1" stop-color="rgb(98.545837%, 74.397278%, 8.049011%)" offset="0.8125"/><stop stop-opacity="1" stop-color="rgb(98.495483%, 74.124146%, 8.302307%)" offset="0.875"/><stop stop-opacity="1" stop-color="rgb(98.446655%, 73.851013%, 8.557129%)" offset="0.9375"/><stop stop-opacity="1" stop-color="rgb(98.396301%, 73.577881%, 8.811951%)" offset="1"/></linearGradient><clipPath id="06214fb9b0"><path d="M 0 720 L 90 720 L 90 810 L 0 810 Z M 0 720 " clip-rule="nonzero"/></clipPath><clipPath id="27d8cb6c37"><path d="M 90 765 C 90 766.472656 89.929688 767.945312 89.785156 769.410156 C 89.640625 770.878906 89.421875 772.332031 89.136719 773.777344 C 88.847656 775.222656 88.488281 776.652344 88.0625 778.0625 C 87.632812 779.472656 87.136719 780.859375 86.574219 782.21875 C 86.011719 783.582031 85.382812 784.914062 84.6875 786.210938 C 83.992188 787.511719 83.234375 788.773438 82.417969 790 C 81.597656 791.226562 80.71875 792.410156 79.785156 793.546875 C 78.851562 794.6875 77.863281 795.777344 76.820312 796.820312 C 75.777344 797.863281 74.6875 798.851562 73.546875 799.785156 C 72.410156 800.71875 71.226562 801.597656 70 802.414062 C 68.773438 803.234375 67.511719 803.992188 66.210938 804.6875 C 64.914062 805.382812 63.582031 806.011719 62.222656 806.574219 C 60.859375 807.136719 59.472656 807.632812 58.0625 808.0625 C 56.652344 808.488281 55.222656 808.847656 53.777344 809.136719 C 52.332031 809.421875 50.878906 809.640625 49.410156 809.785156 C 47.945312 809.925781 46.472656 810 45 810 C 43.527344 810 42.054688 809.925781 40.589844 809.785156 C 39.121094 809.640625 37.667969 809.421875 36.222656 809.136719 C 34.777344 808.847656 33.347656 808.488281 31.9375 808.0625 C 30.527344 807.632812 29.140625 807.136719 27.777344 806.574219 C 26.417969 806.011719 25.085938 805.382812 23.789062 804.6875 C 22.488281 803.992188 21.226562 803.234375 20 802.414062 C 18.773438 801.597656 17.589844 800.71875 16.453125 799.785156 C 15.3125 798.851562 14.222656 797.863281 13.179688 796.820312 C 12.136719 795.777344 11.148438 794.6875 10.214844 793.546875 C 9.28125 792.410156 8.402344 791.226562 7.582031 790 C 6.765625 788.773438 6.007812 787.511719 5.3125 786.210938 C 4.617188 784.914062 3.988281 783.582031 3.425781 782.21875 C 2.863281 780.859375 2.367188 779.472656 1.9375 778.0625 C 1.511719 776.652344 1.152344 775.222656 0.863281 773.777344 C 0.578125 772.332031 0.359375 770.878906 0.214844 769.410156 C 0.0703125 767.945312 0 766.472656 0 765 C 0 763.527344 0.0703125 762.054688 0.214844 760.589844 C 0.359375 759.121094 0.578125 757.667969 0.863281 756.222656 C 1.152344 754.777344 1.511719 753.347656 1.9375 751.9375 C 2.367188 750.527344 2.863281 749.140625 3.425781 747.777344 C 3.988281 746.417969 4.617188 745.085938 5.3125 743.785156 C 6.007812 742.488281 6.765625 741.226562 7.582031 740 C 8.402344 738.773438 9.28125 737.589844 10.214844 736.453125 C 11.148438 735.3125 12.136719 734.222656 13.179688 733.179688 C 14.222656 732.136719 15.3125 731.148438 16.453125 730.214844 C 17.589844 729.28125 18.773438 728.402344 20 727.582031 C 21.226562 726.765625 22.488281 726.007812 23.789062 725.3125 C 25.085938 724.617188 26.417969 723.988281 27.777344 723.425781 C 29.140625 722.859375 30.527344 722.367188 31.9375 721.9375 C 33.347656 721.511719 34.777344 721.152344 36.222656 720.863281 C 37.667969 720.578125 39.121094 720.359375 40.589844 720.214844 C 42.054688 720.074219 43.527344 720 45 720 C 46.472656 720 47.945312 720.074219 49.410156 720.214844 C 50.878906 720.359375 52.332031 720.578125 53.777344 720.863281 C 55.222656 721.152344 56.652344 721.511719 58.0625 721.9375 C 59.472656 722.367188 60.859375 722.859375 62.222656 723.425781 C 63.582031 723.988281 64.914062 724.617188 66.210938 725.3125 C 67.511719 726.007812 68.773438 726.765625 70 727.582031 C 71.226562 728.402344 72.410156 729.28125 73.546875 730.214844 C 74.6875 731.148438 75.777344 732.136719 76.820312 733.179688 C 77.863281 734.222656 78.851562 735.3125 79.785156 736.453125 C 80.71875 737.589844 81.597656 738.773438 82.417969 740 C 83.234375 741.226562 83.992188 742.488281 84.6875 743.785156 C 85.382812 745.085938 86.011719 746.417969 86.574219 747.777344 C 87.136719 749.140625 87.632812 750.527344 88.0625 751.9375 C 88.488281 753.347656 88.847656 754.777344 89.136719 756.222656 C 89.421875 757.667969 89.640625 759.121094 89.785156 760.589844 C 89.929688 762.054688 90 763.527344 90 765 Z M 90 765 " clip-rule="nonzero"/></clipPath><linearGradient x1="1.075392" gradientTransform="matrix(45, 0, 0, 45, -44.999996, -44.99998)" y1="19.065415" x2="2.924407" gradientUnits="userSpaceOnUse" y2="16.934409" id="09a89b4750"><stop stop-opacity="1" stop-color="rgb(99.198914%, 79.147339%, 6.228638%)" offset="0"/><stop stop-opacity="1" stop-color="rgb(99.198914%, 79.006958%, 6.04248%)" offset="0.25"/><stop stop-opacity="1" stop-color="rgb(99.198914%, 78.727722%, 5.671692%)" offset="0.464574"/><stop stop-opacity="1" stop-color="rgb(99.198914%, 78.588867%, 5.485535%)" offset="0.5"/><stop stop-opacity="1" stop-color="rgb(99.198914%, 78.450012%, 5.299377%)" offset="0.535426"/><stop stop-opacity="1" stop-color="rgb(99.198914%, 78.311157%, 5.114746%)" offset="0.75"/><stop stop-opacity="1" stop-color="rgb(99.198914%, 78.170776%, 4.928589%)" offset="1"/></linearGradient></defs><g clip-path="url(#4e291ca2d8)"><g clip-path="url(#01973993bd)"><path fill="url(#5055098843)" d="M 180 0 L 180 90 L 810 90 L 810 0 Z M 180 0 " fill-rule="nonzero"/></g></g><g clip-path="url(#8e3ffac328)"><g clip-path="url(#588212dbc7)"><path fill="url(#9747ba7fd6)" d="M 180 180 L 180 270 L 810 270 L 810 180 Z M 180 180 " fill-rule="nonzero"/></g></g><g clip-path="url(#eece1ee36e)"><g clip-path="url(#a2b6333709)"><path fill="url(#abc6c730dd)" d="M 180 360 L 180 450 L 810 450 L 810 360 Z M 180 360 " fill-rule="nonzero"/></g></g><g clip-path="url(#440664d6c2)"><g clip-path="url(#af878763b0)"><path fill="url(#cbf2394029)" d="M 180 540 L 180 630 L 810 630 L 810 540 Z M 180 540 " fill-rule="nonzero"/></g></g><g clip-path="url(#a3628da1b2)"><g clip-path="url(#5a80006baf)"><path fill="url(#cadfbe6c8f)" d="M 180 720 L 180 810 L 810 810 L 810 720 Z M 180 720 " fill-rule="nonzero"/></g></g><g clip-path="url(#687e1e4c3e)"><g clip-path="url(#1b91a39f80)"><path fill="url(#72a98c70bd)" d="M 0 0 L 0 90 L 90 90 L 90 0 Z M 0 0 " fill-rule="nonzero"/></g></g><g clip-path="url(#c05f934715)"><g clip-path="url(#491dcb7245)"><path fill="url(#8ac01bf64c)" d="M 0 180 L 0 270 L 90 270 L 90 180 Z M 0 180 " fill-rule="nonzero"/></g></g><g clip-path="url(#7f2894a642)"><g clip-path="url(#92f81697cb)"><path fill="url(#cc79f4e025)" d="M 0 360 L 0 450 L 90 450 L 90 360 Z M 0 360 " fill-rule="nonzero"/></g></g><g clip-path="url(#b2b40fa748)"><g clip-path="url(#fc7f0835ea)"><path fill="url(#809c2a1685)" d="M 0 540 L 0 630 L 90 630 L 90 540 Z M 0 540 " fill-rule="nonzero"/></g></g><g clip-path="url(#06214fb9b0)"><g clip-path="url(#27d8cb6c37)"><path fill="url(#09a89b4750)" d="M 0 720 L 0 810 L 90 810 L 90 720 Z M 0 720 " fill-rule="nonzero"/></g></g></svg>