<svg xmlns="http://www.w3.org/2000/svg" xmlns:xlink="http://www.w3.org/1999/xlink" width="1080" height="1080" preserveAspectRatio="xMidYMid meet" version="1.0" viewBox="0 0 810 810" zoomAndPan="magnify"><path fill="#38b6ff" fill-opacity="1" fill-rule="evenodd" d="M 242.683594 258.667969 L 567.316406 258.667969 C 596.042969 258.667969 619.550781 282.175781 619.550781 310.902344 L 619.550781 627.34375 C 619.550781 656.070312 596.042969 679.578125 567.316406 679.578125 L 242.683594 679.578125 C 213.957031 679.578125 190.449219 656.070312 190.449219 627.34375 L 190.449219 310.902344 C 190.449219 282.175781 213.957031 258.667969 242.683594 258.667969 Z M 254.988281 235.363281 L 254.988281 153.808594 C 254.988281 80.367188 294.203125 33.042969 344.457031 12.070312 C 363.6875 4.035156 384.421875 0 405 0 C 425.617188 0 446.351562 4.035156 465.542969 12.070312 C 515.796875 33.042969 555.050781 80.367188 555.050781 153.808594 L 555.050781 235.363281 L 492.84375 235.363281 L 492.84375 153.808594 C 492.84375 109.410156 470.449219 81.355469 441.761719 69.367188 C 430.285156 64.578125 417.703125 62.203125 405 62.203125 C 392.296875 62.203125 379.714844 64.578125 368.277344 69.367188 C 339.589844 81.355469 317.15625 109.410156 317.15625 153.808594 L 317.15625 235.363281 Z M 86.34375 297.605469 L 86.34375 377.617188 L 167.660156 377.617188 L 167.660156 407.253906 L 71.542969 407.253906 C 62.519531 406.265625 57.101562 401.753906 56.703125 392.457031 L 56.703125 297.054688 C 36.917969 290.484375 22.59375 271.765625 22.59375 249.765625 C 22.59375 222.226562 44.910156 199.90625 72.453125 199.90625 C 99.953125 199.90625 122.273438 222.226562 122.273438 249.765625 C 122.273438 272.441406 107.117188 291.59375 86.34375 297.605469 Z M 86.34375 712.300781 L 86.34375 632.289062 L 167.660156 632.289062 L 167.660156 602.691406 L 71.542969 602.691406 C 62.519531 603.679688 57.101562 608.152344 56.703125 617.492188 L 56.703125 712.894531 C 36.917969 719.464844 22.59375 738.140625 22.59375 760.179688 C 22.59375 787.683594 44.910156 810 72.453125 810 C 99.953125 810 122.273438 787.683594 122.273438 760.179688 C 122.273438 737.46875 107.117188 718.316406 86.34375 712.300781 Z M 97.699219 493.042969 L 167.660156 492.84375 L 167.660156 522.484375 L 97.144531 522.679688 C 90.535156 542.507812 71.859375 556.789062 49.820312 556.789062 C 22.316406 556.789062 0 534.472656 0 506.972656 C 0 479.429688 22.316406 457.113281 49.820312 457.113281 C 72.53125 457.113281 91.683594 472.308594 97.699219 493.042969 Z M 723.65625 297.605469 L 723.65625 377.617188 L 642.339844 377.617188 L 642.339844 407.253906 L 738.496094 407.253906 C 747.519531 406.265625 752.898438 401.753906 753.296875 392.457031 L 753.296875 297.054688 C 773.121094 290.484375 787.40625 271.765625 787.40625 249.765625 C 787.40625 222.226562 765.085938 199.90625 737.585938 199.90625 C 710.046875 199.90625 687.726562 222.226562 687.726562 249.765625 C 687.726562 272.441406 702.921875 291.59375 723.65625 297.605469 Z M 723.65625 712.300781 L 723.65625 632.289062 L 642.339844 632.289062 L 642.339844 602.691406 L 738.496094 602.691406 C 747.519531 603.679688 752.898438 608.152344 753.296875 617.492188 L 753.296875 712.894531 C 773.121094 719.464844 787.40625 738.140625 787.40625 760.179688 C 787.40625 787.683594 765.085938 810 737.585938 810 C 710.046875 810 687.726562 787.683594 687.726562 760.179688 C 687.726562 737.46875 702.921875 718.316406 723.65625 712.300781 Z M 712.300781 493.042969 L 642.339844 492.84375 L 642.339844 522.484375 L 712.894531 522.679688 C 719.464844 542.507812 738.140625 556.789062 760.179688 556.789062 C 787.683594 556.789062 810 534.472656 810 506.972656 C 810 479.429688 787.683594 457.113281 760.179688 457.113281 C 737.46875 457.113281 718.316406 472.308594 712.300781 493.042969 Z M 405 483.429688 C 430.5625 483.429688 451.257812 504.125 451.257812 529.683594 C 451.257812 549.550781 438.714844 566.484375 421.105469 573.015625 L 421.105469 641.390625 L 388.894531 641.390625 L 388.894531 573.015625 C 371.285156 566.484375 358.742188 549.550781 358.742188 529.683594 C 358.742188 504.125 379.476562 483.429688 405 483.429688 Z M 331.28125 409.472656 L 331.28125 432.027344 L 245.96875 432.027344 C 246.878906 423.441406 249.6875 415.328125 254.277344 407.691406 C 258.90625 400.015625 268.046875 389.84375 281.621094 377.183594 C 292.582031 366.972656 299.308594 360.046875 301.761719 356.367188 C 305.125 351.382812 306.785156 346.398438 306.785156 341.449219 C 306.785156 336.027344 305.324219 331.875 302.433594 328.90625 C 299.507812 326.019531 295.507812 324.554688 290.40625 324.554688 C 285.300781 324.554688 281.304688 326.097656 278.296875 329.144531 C 275.289062 332.191406 273.585938 337.296875 273.113281 344.417969 L 248.816406 342.003906 C 250.28125 328.589844 254.792969 318.933594 262.429688 313.078125 C 270.027344 307.261719 279.5625 304.332031 291 304.332031 C 303.503906 304.332031 313.355469 307.738281 320.558594 314.503906 C 327.679688 321.269531 331.28125 329.699219 331.28125 339.789062 C 331.28125 345.527344 330.253906 350.945312 328.195312 356.132812 C 326.175781 361.316406 322.890625 366.695312 318.460938 372.394531 C 315.492188 376.152344 310.191406 381.613281 302.472656 388.65625 C 294.796875 395.699219 289.890625 400.410156 287.871094 402.703125 C 285.816406 405.039062 284.113281 407.296875 282.847656 409.472656 Z M 364.480469 399.421875 L 388.777344 396.886719 C 389.488281 402.386719 391.546875 406.78125 394.910156 409.984375 C 398.351562 413.230469 402.269531 414.8125 406.742188 414.8125 C 411.84375 414.8125 416.160156 412.714844 419.679688 408.5625 C 423.164062 404.40625 424.941406 398.15625 424.941406 389.765625 C 424.941406 381.929688 423.203125 376.035156 419.679688 372.117188 C 416.199219 368.199219 411.648438 366.222656 406.027344 366.222656 C 399.023438 366.222656 392.734375 369.308594 387.195312 375.441406 L 367.488281 372.59375 L 379.914062 306.628906 L 444.292969 306.628906 L 444.292969 329.34375 L 398.390625 329.34375 L 394.554688 350.945312 C 399.933594 348.257812 405.515625 346.910156 411.171875 346.910156 C 422.015625 346.910156 431.15625 350.828125 438.675781 358.703125 C 446.191406 366.578125 449.953125 376.785156 449.953125 389.410156 C 449.953125 399.894531 446.90625 409.234375 440.851562 417.464844 C 432.582031 428.703125 421.105469 434.320312 406.464844 434.320312 C 394.710938 434.320312 385.136719 431.15625 377.777344 424.863281 C 370.335938 418.53125 365.945312 410.066406 364.480469 399.421875 Z M 561.738281 336.148438 L 538.152344 338.71875 C 537.597656 333.890625 536.054688 330.332031 533.640625 327.996094 C 531.230469 325.703125 528.101562 324.554688 524.226562 324.554688 C 519.082031 324.554688 514.726562 326.847656 511.207031 331.480469 C 507.644531 336.070312 505.429688 345.683594 504.519531 360.285156 C 510.574219 353.125 518.089844 349.5625 527.113281 349.5625 C 537.242188 349.5625 545.949219 353.441406 553.191406 361.15625 C 560.429688 368.953125 564.03125 378.921875 564.03125 391.191406 C 564.03125 404.207031 560.234375 414.65625 552.597656 422.53125 C 544.960938 430.363281 535.1875 434.320312 523.234375 434.320312 C 510.453125 434.320312 499.890625 429.296875 491.660156 419.324219 C 483.429688 409.351562 479.273438 393.011719 479.273438 370.257812 C 479.273438 346.910156 483.585938 330.09375 492.210938 319.804688 C 500.800781 309.476562 511.957031 304.332031 525.6875 304.332031 C 535.34375 304.332031 543.296875 307.0625 549.628906 312.484375 C 555.960938 317.90625 559.996094 325.78125 561.738281 336.148438 Z M 506.578125 389.25 C 506.578125 397.203125 508.4375 403.296875 512.035156 407.613281 C 515.675781 411.925781 519.832031 414.101562 524.542969 414.101562 C 529.011719 414.101562 532.773438 412.320312 535.777344 408.796875 C 538.785156 405.277344 540.289062 399.460938 540.289062 391.425781 C 540.289062 383.15625 538.667969 377.101562 535.421875 373.226562 C 532.179688 369.386719 528.140625 367.449219 523.316406 367.449219 C 518.605469 367.449219 514.6875 369.308594 511.445312 372.988281 C 508.199219 376.667969 506.578125 382.089844 506.578125 389.25 Z M 506.578125 389.25"/></svg>